<svg xmlns="http://www.w3.org/2000/svg" width="805" height="600"><rect width="805" height="600" x="0" y="0" fill="#FFFFFF" id="background"/><g transform="translate(50,10)" id="viz"><g id="y axis" fill="none" font-size="10" font-family="sans-serif" text-anchor="end"><path class="domain" stroke="currentColor" d="M-6,560.5H0.5V0.5H-6"/><g class="tick" opacity="1" transform="translate(0,560.5)"><line stroke="currentColor" x2="-6"/><text fill="currentColor" x="-9" dy="0.32em">0</text></g><g class="tick" opacity="1" transform="translate(0,517.4230769230769)"><line stroke="currentColor" x2="-6"/><text fill="currentColor" x="-9" dy="0.32em">2</text></g><g class="tick" opacity="1" transform="translate(0,474.34615384615387)"><line stroke="currentColor" x2="-6"/><text fill="currentColor" x="-9" dy="0.32em">4</text></g><g class="tick" opacity="1" transform="translate(0,431.2692307692307)"><line stroke="currentColor" x2="-6"/><text fill="currentColor" x="-9" dy="0.32em">6</text></g><g class="tick" opacity="1" transform="translate(0,388.1923076923077)"><line stroke="currentColor" x2="-6"/><text fill="currentColor" x="-9" dy="0.32em">8</text></g><g class="tick" opacity="1" transform="translate(0,345.11538461538464)"><line stroke="currentColor" x2="-6"/><text fill="currentColor" x="-9" dy="0.32em">10</text></g><g class="tick" opacity="1" transform="translate(0,302.03846153846155)"><line stroke="currentColor" x2="-6"/><text fill="currentColor" x="-9" dy="0.32em">12</text></g><g class="tick" opacity="1" transform="translate(0,258.96153846153845)"><line stroke="currentColor" x2="-6"/><text fill="currentColor" x="-9" dy="0.32em">14</text></g><g class="tick" opacity="1" transform="translate(0,215.88461538461536)"><line stroke="currentColor" x2="-6"/><text fill="currentColor" x="-9" dy="0.32em">16</text></g><g class="tick" opacity="1" transform="translate(0,172.80769230769232)"><line stroke="currentColor" x2="-6"/><text fill="currentColor" x="-9" dy="0.32em">18</text></g><g class="tick" opacity="1" transform="translate(0,129.7307692307692)"><line stroke="currentColor" x2="-6"/><text fill="currentColor" x="-9" dy="0.32em">20</text></g><g class="tick" opacity="1" transform="translate(0,86.65384615384616)"><line stroke="currentColor" x2="-6"/><text fill="currentColor" x="-9" dy="0.32em">22</text></g><g class="tick" opacity="1" transform="translate(0,43.57692307692305)"><line stroke="currentColor" x2="-6"/><text fill="currentColor" x="-9" dy="0.32em">24</text></g><g class="tick" opacity="1" transform="translate(0,0.5)"><line stroke="currentColor" x2="-6"/><text fill="currentColor" x="-9" dy="0.32em">26</text></g><text x="4" text-anchor="start" dominant-baseline="hanging" style="font-family: Arial, sans-serif; font-size: 12px; fill: rgb(123, 123, 123); font-weight: bold;">environment_score</text></g><g id="x axis" transform="translate(0,560)" fill="none" font-size="10" font-family="sans-serif" text-anchor="middle"><path class="domain" stroke="currentColor" d="M0.5,6V0.5H745.5V6"/><g class="tick" opacity="1" transform="translate(38.5,0)"><line stroke="currentColor" y2="6"/><text fill="currentColor" y="9" dy="0.71em">Healthcare</text></g><g class="tick" opacity="1" transform="translate(105.5,0)"><line stroke="currentColor" y2="6"/><text fill="currentColor" y="9" dy="0.71em">Industrials</text></g><g class="tick" opacity="1" transform="translate(172.5,0)"><line stroke="currentColor" y2="6"/><text fill="currentColor" y="9" dy="0.71em">Consumer Cyclical</text></g><g class="tick" opacity="1" transform="translate(239.5,0)"><line stroke="currentColor" y2="6"/><text fill="currentColor" y="9" dy="0.71em">Technology</text></g><g class="tick" opacity="1" transform="translate(306.5,0)"><line stroke="currentColor" y2="6"/><text fill="currentColor" y="9" dy="0.71em">Consumer Defensive</text></g><g class="tick" opacity="1" transform="translate(373.5,0)"><line stroke="currentColor" y2="6"/><text fill="currentColor" y="9" dy="0.71em">Utilities</text></g><g class="tick" opacity="1" transform="translate(440.5,0)"><line stroke="currentColor" y2="6"/><text fill="currentColor" y="9" dy="0.71em">Financial Services</text></g><g class="tick" opacity="1" transform="translate(507.5,0)"><line stroke="currentColor" y2="6"/><text fill="currentColor" y="9" dy="0.71em">Basic Materials</text></g><g class="tick" opacity="1" transform="translate(574.5,0)"><line stroke="currentColor" y2="6"/><text fill="currentColor" y="9" dy="0.71em">Real Estate</text></g><g class="tick" opacity="1" transform="translate(641.5,0)"><line stroke="currentColor" y2="6"/><text fill="currentColor" y="9" dy="0.71em">Energy</text></g><g class="tick" opacity="1" transform="translate(708.5,0)"><line stroke="currentColor" y2="6"/><text fill="currentColor" y="9" dy="0.71em">Communication Services</text></g></g><g id="boxplots"><g><line x1="38" x2="38" y1="560" y2="560" stroke="#e377c2" stroke-dasharray="4"/><line x1="28" x2="48" y1="560" y2="560" stroke="#e377c2"/><line x1="28" x2="48" y1="560" y2="560" stroke="#e377c2"/><rect x="28" y="495.38461538461536" width="20" height="51.15384615384619" fill="#e377c2"/><line x1="28" y1="528.7692307692307" x2="48" y2="528.7692307692307" stroke="#FFFFFF"/><circle r="1" cx="38" cy="553.5384615384615" fill="#FFFFFF" stroke="#e377c2"/><circle r="1" cx="38" cy="536.3076923076924" fill="#FFFFFF" stroke="#e377c2"/><circle r="1" cx="38" cy="532" fill="#FFFFFF" stroke="#e377c2"/><circle r="1" cx="38" cy="495.38461538461536" fill="#FFFFFF" stroke="#e377c2"/><circle r="1" cx="38" cy="544.9230769230769" fill="#FFFFFF" stroke="#e377c2"/><circle r="1" cx="38" cy="499.69230769230774" fill="#FFFFFF" stroke="#e377c2"/><circle r="1" cx="38" cy="480.3076923076923" fill="#FFFFFF" stroke="#e377c2"/><circle r="1" cx="38" cy="538.4615384615385" fill="#FFFFFF" stroke="#e377c2"/><circle r="1" cx="38" cy="553.5384615384615" fill="#FFFFFF" stroke="#e377c2"/><circle r="1" cx="38" cy="495.38461538461536" fill="#FFFFFF" stroke="#e377c2"/><circle r="1" cx="38" cy="516.9230769230769" fill="#FFFFFF" stroke="#e377c2"/><circle r="1" cx="38" cy="557.8461538461538" fill="#FFFFFF" stroke="#e377c2"/><circle r="1" cx="38" cy="501.84615384615387" fill="#FFFFFF" stroke="#e377c2"/><circle r="1" cx="38" cy="557.8461538461538" fill="#FFFFFF" stroke="#e377c2"/><circle r="1" cx="38" cy="529.8461538461538" fill="#FFFFFF" stroke="#e377c2"/><circle r="1" cx="38" cy="452.3076923076923" fill="#FFFFFF" stroke="#e377c2"/><circle r="1" cx="38" cy="497.5384615384615" fill="#FFFFFF" stroke="#e377c2"/><circle r="1" cx="38" cy="484.61538461538464" fill="#FFFFFF" stroke="#e377c2"/><circle r="1" cx="38" cy="456.6153846153846" fill="#FFFFFF" stroke="#e377c2"/><circle r="1" cx="38" cy="516.9230769230769" fill="#FFFFFF" stroke="#e377c2"/><circle r="1" cx="38" cy="495.38461538461536" fill="#FFFFFF" stroke="#e377c2"/><circle r="1" cx="38" cy="538.4615384615385" fill="#FFFFFF" stroke="#e377c2"/><circle r="1" cx="38" cy="527.6923076923077" fill="#FFFFFF" stroke="#e377c2"/><circle r="1" cx="38" cy="532" fill="#FFFFFF" stroke="#e377c2"/><circle r="1" cx="38" cy="465.23076923076917" fill="#FFFFFF" stroke="#e377c2"/><circle r="1" cx="38" cy="544.9230769230769" fill="#FFFFFF" stroke="#e377c2"/><circle r="1" cx="38" cy="557.8461538461538" fill="#FFFFFF" stroke="#e377c2"/><circle r="1" cx="38" cy="486.7692307692308" fill="#FFFFFF" stroke="#e377c2"/><circle r="1" cx="38" cy="510.46153846153845" fill="#FFFFFF" stroke="#e377c2"/><circle r="1" cx="38" cy="508.3076923076923" fill="#FFFFFF" stroke="#e377c2"/><circle r="1" cx="38" cy="542.7692307692307" fill="#FFFFFF" stroke="#e377c2"/><circle r="1" cx="38" cy="538.4615384615385" fill="#FFFFFF" stroke="#e377c2"/><circle r="1" cx="38" cy="499.69230769230774" fill="#FFFFFF" stroke="#e377c2"/><circle r="1" cx="38" cy="551.3846153846155" fill="#FFFFFF" stroke="#e377c2"/><circle r="1" cx="38" cy="495.38461538461536" fill="#FFFFFF" stroke="#e377c2"/><circle r="1" cx="38" cy="480.3076923076923" fill="#FFFFFF" stroke="#e377c2"/><circle r="1" cx="38" cy="452.3076923076923" fill="#FFFFFF" stroke="#e377c2"/><circle r="1" cx="38" cy="527.6923076923077" fill="#FFFFFF" stroke="#e377c2"/><circle r="1" cx="38" cy="473.84615384615387" fill="#FFFFFF" stroke="#e377c2"/><circle r="1" cx="38" cy="542.7692307692307" fill="#FFFFFF" stroke="#e377c2"/><circle r="1" cx="38" cy="529.8461538461538" fill="#FFFFFF" stroke="#e377c2"/><circle r="1" cx="38" cy="516.9230769230769" fill="#FFFFFF" stroke="#e377c2"/><circle r="1" cx="38" cy="516.9230769230769" fill="#FFFFFF" stroke="#e377c2"/><circle r="1" cx="38" cy="473.84615384615387" fill="#FFFFFF" stroke="#e377c2"/><circle r="1" cx="38" cy="529.8461538461538" fill="#FFFFFF" stroke="#e377c2"/></g><g><line x1="105" x2="105" y1="280" y2="536.3076923076924" stroke="#7f7f7f" stroke-dasharray="4"/><line x1="95" x2="115" y1="280" y2="280" stroke="#7f7f7f"/><line x1="95" x2="115" y1="536.3076923076924" y2="536.3076923076924" stroke="#7f7f7f"/><rect x="95" y="357.5384615384615" width="20" height="104.46153846153851" fill="#7f7f7f"/><line x1="95" y1="407.0769230769231" x2="115" y2="407.0769230769231" stroke="#FFFFFF"/><circle r="1" cx="105" fill="#FFFFFF" stroke="#7f7f7f"/><circle r="1" cx="105" fill="#FFFFFF" stroke="#7f7f7f"/><circle r="1" cx="105" cy="560" fill="#FFFFFF" stroke="#7f7f7f"/><circle r="1" cx="105" cy="256.3076923076923" fill="#FFFFFF" stroke="#7f7f7f"/><circle r="1" cx="105" fill="#FFFFFF" stroke="#7f7f7f"/><circle r="1" cx="105" fill="#FFFFFF" stroke="#7f7f7f"/><circle r="1" cx="105" fill="#FFFFFF" stroke="#7f7f7f"/><circle r="1" cx="105" fill="#FFFFFF" stroke="#7f7f7f"/><circle r="1" cx="105" fill="#FFFFFF" stroke="#7f7f7f"/><circle r="1" cx="105" fill="#FFFFFF" stroke="#7f7f7f"/><circle r="1" cx="105" fill="#FFFFFF" stroke="#7f7f7f"/><circle r="1" cx="105" fill="#FFFFFF" stroke="#7f7f7f"/><circle r="1" cx="105" cy="560" fill="#FFFFFF" stroke="#7f7f7f"/><circle r="1" cx="105" fill="#FFFFFF" stroke="#7f7f7f"/><circle r="1" cx="105" cy="557.8461538461538" fill="#FFFFFF" stroke="#7f7f7f"/></g><g><line x1="172" x2="172" y1="560" y2="560" stroke="#2ca02c" stroke-dasharray="4"/><line x1="162" x2="182" y1="560" y2="560" stroke="#2ca02c"/><line x1="162" x2="182" y1="560" y2="560" stroke="#2ca02c"/><rect x="162" y="382.84615384615387" width="20" height="134.07692307692304" fill="#2ca02c"/><line x1="162" y1="473.84615384615387" x2="182" y2="473.84615384615387" stroke="#FFFFFF"/><circle r="1" cx="172" cy="439.38461538461536" fill="#FFFFFF" stroke="#2ca02c"/><circle r="1" cx="172" cy="516.9230769230769" fill="#FFFFFF" stroke="#2ca02c"/><circle r="1" cx="172" cy="331.6923076923077" fill="#FFFFFF" stroke="#2ca02c"/><circle r="1" cx="172" cy="557.8461538461538" fill="#FFFFFF" stroke="#2ca02c"/><circle r="1" cx="172" cy="432.9230769230769" fill="#FFFFFF" stroke="#2ca02c"/><circle r="1" cx="172" cy="495.38461538461536" fill="#FFFFFF" stroke="#2ca02c"/><circle r="1" cx="172" cy="512.6153846153846" fill="#FFFFFF" stroke="#2ca02c"/><circle r="1" cx="172" cy="516.9230769230769" fill="#FFFFFF" stroke="#2ca02c"/><circle r="1" cx="172" cy="495.38461538461536" fill="#FFFFFF" stroke="#2ca02c"/><circle r="1" cx="172" cy="344.61538461538464" fill="#FFFFFF" stroke="#2ca02c"/><circle r="1" cx="172" cy="441.53846153846155" fill="#FFFFFF" stroke="#2ca02c"/><circle r="1" cx="172" cy="357.5384615384615" fill="#FFFFFF" stroke="#2ca02c"/><circle r="1" cx="172" cy="394.15384615384613" fill="#FFFFFF" stroke="#2ca02c"/><circle r="1" cx="172" cy="379.0769230769231" fill="#FFFFFF" stroke="#2ca02c"/><circle r="1" cx="172" cy="538.4615384615385" fill="#FFFFFF" stroke="#2ca02c"/><circle r="1" cx="172" cy="514.7692307692307" fill="#FFFFFF" stroke="#2ca02c"/><circle r="1" cx="172" cy="359.6923076923077" fill="#FFFFFF" stroke="#2ca02c"/><circle r="1" cx="172" cy="338.15384615384613" fill="#FFFFFF" stroke="#2ca02c"/><circle r="1" cx="172" cy="473.84615384615387" fill="#FFFFFF" stroke="#2ca02c"/><circle r="1" cx="172" cy="486.7692307692308" fill="#FFFFFF" stroke="#2ca02c"/><circle r="1" cx="172" cy="409.2307692307693" fill="#FFFFFF" stroke="#2ca02c"/><circle r="1" cx="172" cy="251.99999999999997" fill="#FFFFFF" stroke="#2ca02c"/><circle r="1" cx="172" cy="557.8461538461538" fill="#FFFFFF" stroke="#2ca02c"/><circle r="1" cx="172" cy="368.3076923076923" fill="#FFFFFF" stroke="#2ca02c"/><circle r="1" cx="172" cy="488.9230769230769" fill="#FFFFFF" stroke="#2ca02c"/><circle r="1" cx="172" cy="480.3076923076923" fill="#FFFFFF" stroke="#2ca02c"/><circle r="1" cx="172" cy="532" fill="#FFFFFF" stroke="#2ca02c"/><circle r="1" cx="172" cy="370.46153846153845" fill="#FFFFFF" stroke="#2ca02c"/><circle r="1" cx="172" cy="469.53846153846155" fill="#FFFFFF" stroke="#2ca02c"/><circle r="1" cx="172" cy="516.9230769230769" fill="#FFFFFF" stroke="#2ca02c"/><circle r="1" cx="172" cy="430.7692307692307" fill="#FFFFFF" stroke="#2ca02c"/><circle r="1" cx="172" cy="301.53846153846155" fill="#FFFFFF" stroke="#2ca02c"/><circle r="1" cx="172" cy="495.38461538461536" fill="#FFFFFF" stroke="#2ca02c"/><circle r="1" cx="172" cy="404.9230769230769" fill="#FFFFFF" stroke="#2ca02c"/><circle r="1" cx="172" cy="555.6923076923077" fill="#FFFFFF" stroke="#2ca02c"/><circle r="1" cx="172" cy="372.61538461538464" fill="#FFFFFF" stroke="#2ca02c"/><circle r="1" cx="172" cy="310.1538461538462" fill="#FFFFFF" stroke="#2ca02c"/><circle r="1" cx="172" cy="366.15384615384613" fill="#FFFFFF" stroke="#2ca02c"/><circle r="1" cx="172" cy="538.4615384615385" fill="#FFFFFF" stroke="#2ca02c"/><circle r="1" cx="172" cy="516.9230769230769" fill="#FFFFFF" stroke="#2ca02c"/><circle r="1" cx="172" cy="521.2307692307693" fill="#FFFFFF" stroke="#2ca02c"/><circle r="1" cx="172" cy="428.6153846153846" fill="#FFFFFF" stroke="#2ca02c"/><circle r="1" cx="172" cy="215.38461538461536" fill="#FFFFFF" stroke="#2ca02c"/><circle r="1" cx="172" cy="519.0769230769231" fill="#FFFFFF" stroke="#2ca02c"/><circle r="1" cx="172" cy="538.4615384615385" fill="#FFFFFF" stroke="#2ca02c"/><circle r="1" cx="172" cy="495.38461538461536" fill="#FFFFFF" stroke="#2ca02c"/><circle r="1" cx="172" cy="499.69230769230774" fill="#FFFFFF" stroke="#2ca02c"/><circle r="1" cx="172" cy="473.84615384615387" fill="#FFFFFF" stroke="#2ca02c"/><circle r="1" cx="172" cy="538.4615384615385" fill="#FFFFFF" stroke="#2ca02c"/><circle r="1" cx="172" cy="452.3076923076923" fill="#FFFFFF" stroke="#2ca02c"/><circle r="1" cx="172" cy="473.84615384615387" fill="#FFFFFF" stroke="#2ca02c"/><circle r="1" cx="172" cy="463.07692307692304" fill="#FFFFFF" stroke="#2ca02c"/></g><g><line x1="239" x2="239" y1="560" y2="560" stroke="#17becf" stroke-dasharray="4"/><line x1="229" x2="249" y1="560" y2="560" stroke="#17becf"/><line x1="229" x2="249" y1="560" y2="560" stroke="#17becf"/><rect x="229" y="449.0769230769231" width="20" height="88.30769230769226" fill="#17becf"/><line x1="229" y1="510.46153846153845" x2="249" y2="510.46153846153845" stroke="#FFFFFF"/><circle r="1" cx="239" cy="547.0769230769231" fill="#FFFFFF" stroke="#17becf"/><circle r="1" cx="239" cy="553.5384615384615" fill="#FFFFFF" stroke="#17becf"/><circle r="1" cx="239" cy="519.0769230769231" fill="#FFFFFF" stroke="#17becf"/><circle r="1" cx="239" cy="342.4615384615385" fill="#FFFFFF" stroke="#17becf"/><circle r="1" cx="239" cy="495.38461538461536" fill="#FFFFFF" stroke="#17becf"/><circle r="1" cx="239" cy="497.5384615384615" fill="#FFFFFF" stroke="#17becf"/><circle r="1" cx="239" cy="478.1538461538462" fill="#FFFFFF" stroke="#17becf"/><circle r="1" cx="239" cy="538.4615384615385" fill="#FFFFFF" stroke="#17becf"/><circle r="1" cx="239" cy="387.6923076923077" fill="#FFFFFF" stroke="#17becf"/><circle r="1" cx="239" cy="370.46153846153845" fill="#FFFFFF" stroke="#17becf"/><circle r="1" cx="239" cy="542.7692307692307" fill="#FFFFFF" stroke="#17becf"/><circle r="1" cx="239" cy="529.8461538461538" fill="#FFFFFF" stroke="#17becf"/><circle r="1" cx="239" cy="516.9230769230769" fill="#FFFFFF" stroke="#17becf"/><circle r="1" cx="239" cy="510.46153846153845" fill="#FFFFFF" stroke="#17becf"/><circle r="1" cx="239" cy="536.3076923076924" fill="#FFFFFF" stroke="#17becf"/><circle r="1" cx="239" cy="538.4615384615385" fill="#FFFFFF" stroke="#17becf"/><circle r="1" cx="239" cy="538.4615384615385" fill="#FFFFFF" stroke="#17becf"/><circle r="1" cx="239" cy="532" fill="#FFFFFF" stroke="#17becf"/><circle r="1" cx="239" cy="497.5384615384615" fill="#FFFFFF" stroke="#17becf"/><circle r="1" cx="239" cy="534.1538461538462" fill="#FFFFFF" stroke="#17becf"/><circle r="1" cx="239" cy="215.38461538461536" fill="#FFFFFF" stroke="#17becf"/><circle r="1" cx="239" cy="409.2307692307693" fill="#FFFFFF" stroke="#17becf"/><circle r="1" cx="239" cy="443.6923076923077" fill="#FFFFFF" stroke="#17becf"/><circle r="1" cx="239" cy="538.4615384615385" fill="#FFFFFF" stroke="#17becf"/><circle r="1" cx="239" cy="549.2307692307692" fill="#FFFFFF" stroke="#17becf"/><circle r="1" cx="239" cy="465.23076923076917" fill="#FFFFFF" stroke="#17becf"/><circle r="1" cx="239" cy="538.4615384615385" fill="#FFFFFF" stroke="#17becf"/><circle r="1" cx="239" cy="542.7692307692307" fill="#FFFFFF" stroke="#17becf"/><circle r="1" cx="239" cy="516.9230769230769" fill="#FFFFFF" stroke="#17becf"/><circle r="1" cx="239" cy="516.9230769230769" fill="#FFFFFF" stroke="#17becf"/><circle r="1" cx="239" cy="407.0769230769231" fill="#FFFFFF" stroke="#17becf"/><circle r="1" cx="239" cy="532" fill="#FFFFFF" stroke="#17becf"/><circle r="1" cx="239" cy="463.07692307692304" fill="#FFFFFF" stroke="#17becf"/><circle r="1" cx="239" cy="236.92307692307696" fill="#FFFFFF" stroke="#17becf"/><circle r="1" cx="239" cy="527.6923076923077" fill="#FFFFFF" stroke="#17becf"/><circle r="1" cx="239" cy="512.6153846153846" fill="#FFFFFF" stroke="#17becf"/><circle r="1" cx="239" cy="417.84615384615387" fill="#FFFFFF" stroke="#17becf"/><circle r="1" cx="239" cy="529.8461538461538" fill="#FFFFFF" stroke="#17becf"/><circle r="1" cx="239" cy="504" fill="#FFFFFF" stroke="#17becf"/><circle r="1" cx="239" cy="510.46153846153845" fill="#FFFFFF" stroke="#17becf"/><circle r="1" cx="239" cy="372.61538461538464" fill="#FFFFFF" stroke="#17becf"/><circle r="1" cx="239" cy="549.2307692307692" fill="#FFFFFF" stroke="#17becf"/><circle r="1" cx="239" cy="454.46153846153845" fill="#FFFFFF" stroke="#17becf"/><circle r="1" cx="239" cy="456.6153846153846" fill="#FFFFFF" stroke="#17becf"/><circle r="1" cx="239" cy="280" fill="#FFFFFF" stroke="#17becf"/><circle r="1" cx="239" cy="460.9230769230769" fill="#FFFFFF" stroke="#17becf"/><circle r="1" cx="239" cy="491.0769230769231" fill="#FFFFFF" stroke="#17becf"/><circle r="1" cx="239" cy="525.5384615384615" fill="#FFFFFF" stroke="#17becf"/><circle r="1" cx="239" cy="310.1538461538462" fill="#FFFFFF" stroke="#17becf"/><circle r="1" cx="239" cy="430.7692307692307" fill="#FFFFFF" stroke="#17becf"/><circle r="1" cx="239" cy="424.30769230769226" fill="#FFFFFF" stroke="#17becf"/><circle r="1" cx="239" cy="491.0769230769231" fill="#FFFFFF" stroke="#17becf"/><circle r="1" cx="239" cy="370.46153846153845" fill="#FFFFFF" stroke="#17becf"/><circle r="1" cx="239" cy="458.7692307692308" fill="#FFFFFF" stroke="#17becf"/><circle r="1" cx="239" cy="527.6923076923077" fill="#FFFFFF" stroke="#17becf"/></g><g><line x1="306" x2="306" y1="560" y2="516.9230769230769" stroke="#d62728" stroke-dasharray="4"/><line x1="296" x2="316" y1="560" y2="560" stroke="#d62728"/><line x1="296" x2="316" y1="516.9230769230769" y2="516.9230769230769" stroke="#d62728"/><rect x="296" y="323.07692307692304" width="20" height="107.69230769230768" fill="#d62728"/><line x1="296" y1="400.61538461538464" x2="316" y2="400.61538461538464" stroke="#FFFFFF"/><circle r="1" cx="306" cy="172.30769230769232" fill="#FFFFFF" stroke="#d62728"/><circle r="1" cx="306" cy="323.07692307692304" fill="#FFFFFF" stroke="#d62728"/><circle r="1" cx="306" cy="409.2307692307693" fill="#FFFFFF" stroke="#d62728"/><circle r="1" cx="306" cy="428.6153846153846" fill="#FFFFFF" stroke="#d62728"/><circle r="1" cx="306" cy="424.30769230769226" fill="#FFFFFF" stroke="#d62728"/><circle r="1" cx="306" cy="402.7692307692308" fill="#FFFFFF" stroke="#d62728"/><circle r="1" cx="306" cy="323.07692307692304" fill="#FFFFFF" stroke="#d62728"/><circle r="1" cx="306" cy="488.9230769230769" fill="#FFFFFF" stroke="#d62728"/><circle r="1" cx="306" cy="486.7692307692308" fill="#FFFFFF" stroke="#d62728"/><circle r="1" cx="306" cy="411.3846153846154" fill="#FFFFFF" stroke="#d62728"/><circle r="1" cx="306" cy="387.6923076923077" fill="#FFFFFF" stroke="#d62728"/><circle r="1" cx="306" cy="275.69230769230774" fill="#FFFFFF" stroke="#d62728"/><circle r="1" cx="306" cy="316.6153846153846" fill="#FFFFFF" stroke="#d62728"/><circle r="1" cx="306" cy="400.61538461538464" fill="#FFFFFF" stroke="#d62728"/><circle r="1" cx="306" cy="258.46153846153845" fill="#FFFFFF" stroke="#d62728"/><circle r="1" cx="306" cy="387.6923076923077" fill="#FFFFFF" stroke="#d62728"/><circle r="1" cx="306" cy="389.8461538461538" fill="#FFFFFF" stroke="#d62728"/><circle r="1" cx="306" cy="420" fill="#FFFFFF" stroke="#d62728"/><circle r="1" cx="306" fill="#FFFFFF" stroke="#d62728"/><circle r="1" cx="306" cy="355.38461538461536" fill="#FFFFFF" stroke="#d62728"/><circle r="1" cx="306" cy="342.4615384615385" fill="#FFFFFF" stroke="#d62728"/><circle r="1" cx="306" cy="301.53846153846155" fill="#FFFFFF" stroke="#d62728"/><circle r="1" cx="306" cy="458.7692307692308" fill="#FFFFFF" stroke="#d62728"/><circle r="1" cx="306" cy="430.7692307692307" fill="#FFFFFF" stroke="#d62728"/><circle r="1" cx="306" cy="454.46153846153845" fill="#FFFFFF" stroke="#d62728"/><circle r="1" cx="306" cy="355.38461538461536" fill="#FFFFFF" stroke="#d62728"/><circle r="1" cx="306" cy="482.4615384615385" fill="#FFFFFF" stroke="#d62728"/><circle r="1" cx="306" cy="292.9230769230769" fill="#FFFFFF" stroke="#d62728"/><circle r="1" cx="306" cy="344.61538461538464" fill="#FFFFFF" stroke="#d62728"/><circle r="1" cx="306" cy="499.69230769230774" fill="#FFFFFF" stroke="#d62728"/><circle r="1" cx="306" cy="409.2307692307693" fill="#FFFFFF" stroke="#d62728"/><circle r="1" cx="306" cy="516.9230769230769" fill="#FFFFFF" stroke="#d62728"/><circle r="1" cx="306" cy="251.99999999999997" fill="#FFFFFF" stroke="#d62728"/><circle r="1" cx="306" cy="465.23076923076917" fill="#FFFFFF" stroke="#d62728"/></g><g><line x1="373" x2="373" y1="135.6923076923077" y2="452.3076923076923" stroke="#cccccc" stroke-dasharray="4"/><line x1="363" x2="383" y1="135.6923076923077" y2="135.6923076923077" stroke="#cccccc"/><line x1="363" x2="383" y1="452.3076923076923" y2="452.3076923076923" stroke="#cccccc"/><rect x="363" y="239.0769230769231" width="20" height="88.30769230769226" fill="#cccccc"/><line x1="363" y1="280" x2="383" y2="280" stroke="#FFFFFF"/><circle r="1" cx="373" fill="#FFFFFF" stroke="#cccccc"/><circle r="1" cx="373" fill="#FFFFFF" stroke="#cccccc"/></g><g><line x1="440" x2="440" y1="560" y2="560" stroke="#8c564b" stroke-dasharray="4"/><line x1="430" x2="450" y1="560" y2="560" stroke="#8c564b"/><line x1="430" x2="450" y1="560" y2="560" stroke="#8c564b"/><rect x="430" y="516.9230769230769" width="20" height="28" fill="#8c564b"/><line x1="430" y1="525.5384615384615" x2="450" y2="525.5384615384615" stroke="#FFFFFF"/><circle r="1" cx="440" cy="516.9230769230769" fill="#FFFFFF" stroke="#8c564b"/><circle r="1" cx="440" cy="516.9230769230769" fill="#FFFFFF" stroke="#8c564b"/><circle r="1" cx="440" cy="557.8461538461538" fill="#FFFFFF" stroke="#8c564b"/><circle r="1" cx="440" cy="538.4615384615385" fill="#FFFFFF" stroke="#8c564b"/><circle r="1" cx="440" cy="504" fill="#FFFFFF" stroke="#8c564b"/><circle r="1" cx="440" cy="557.8461538461538" fill="#FFFFFF" stroke="#8c564b"/><circle r="1" cx="440" cy="525.5384615384615" fill="#FFFFFF" stroke="#8c564b"/><circle r="1" cx="440" cy="538.4615384615385" fill="#FFFFFF" stroke="#8c564b"/><circle r="1" cx="440" cy="536.3076923076924" fill="#FFFFFF" stroke="#8c564b"/><circle r="1" cx="440" cy="527.6923076923077" fill="#FFFFFF" stroke="#8c564b"/><circle r="1" cx="440" cy="555.6923076923077" fill="#FFFFFF" stroke="#8c564b"/><circle r="1" cx="440" cy="521.2307692307693" fill="#FFFFFF" stroke="#8c564b"/><circle r="1" cx="440" cy="523.3846153846154" fill="#FFFFFF" stroke="#8c564b"/><circle r="1" cx="440" cy="501.84615384615387" fill="#FFFFFF" stroke="#8c564b"/><circle r="1" cx="440" cy="516.9230769230769" fill="#FFFFFF" stroke="#8c564b"/><circle r="1" cx="440" cy="521.2307692307693" fill="#FFFFFF" stroke="#8c564b"/><circle r="1" cx="440" cy="516.9230769230769" fill="#FFFFFF" stroke="#8c564b"/><circle r="1" cx="440" cy="514.7692307692307" fill="#FFFFFF" stroke="#8c564b"/><circle r="1" cx="440" cy="497.5384615384615" fill="#FFFFFF" stroke="#8c564b"/><circle r="1" cx="440" cy="529.8461538461538" fill="#FFFFFF" stroke="#8c564b"/><circle r="1" cx="440" cy="516.9230769230769" fill="#FFFFFF" stroke="#8c564b"/><circle r="1" cx="440" cy="532" fill="#FFFFFF" stroke="#8c564b"/><circle r="1" cx="440" cy="516.9230769230769" fill="#FFFFFF" stroke="#8c564b"/><circle r="1" cx="440" cy="516.9230769230769" fill="#FFFFFF" stroke="#8c564b"/><circle r="1" cx="440" cy="523.3846153846154" fill="#FFFFFF" stroke="#8c564b"/><circle r="1" cx="440" cy="538.4615384615385" fill="#FFFFFF" stroke="#8c564b"/><circle r="1" cx="440" cy="536.3076923076924" fill="#FFFFFF" stroke="#8c564b"/><circle r="1" cx="440" cy="516.9230769230769" fill="#FFFFFF" stroke="#8c564b"/><circle r="1" cx="440" cy="547.0769230769231" fill="#FFFFFF" stroke="#8c564b"/><circle r="1" cx="440" cy="516.9230769230769" fill="#FFFFFF" stroke="#8c564b"/><circle r="1" cx="440" cy="553.5384615384615" fill="#FFFFFF" stroke="#8c564b"/><circle r="1" cx="440" cy="544.9230769230769" fill="#FFFFFF" stroke="#8c564b"/><circle r="1" cx="440" cy="557.8461538461538" fill="#FFFFFF" stroke="#8c564b"/><circle r="1" cx="440" cy="544.9230769230769" fill="#FFFFFF" stroke="#8c564b"/><circle r="1" cx="440" cy="516.9230769230769" fill="#FFFFFF" stroke="#8c564b"/><circle r="1" cx="440" cy="516.9230769230769" fill="#FFFFFF" stroke="#8c564b"/><circle r="1" cx="440" cy="521.2307692307693" fill="#FFFFFF" stroke="#8c564b"/><circle r="1" cx="440" cy="519.0769230769231" fill="#FFFFFF" stroke="#8c564b"/><circle r="1" cx="440" cy="544.9230769230769" fill="#FFFFFF" stroke="#8c564b"/><circle r="1" cx="440" cy="523.3846153846154" fill="#FFFFFF" stroke="#8c564b"/><circle r="1" cx="440" cy="523.3846153846154" fill="#FFFFFF" stroke="#8c564b"/><circle r="1" cx="440" cy="538.4615384615385" fill="#FFFFFF" stroke="#8c564b"/><circle r="1" cx="440" cy="544.9230769230769" fill="#FFFFFF" stroke="#8c564b"/><circle r="1" cx="440" cy="525.5384615384615" fill="#FFFFFF" stroke="#8c564b"/><circle r="1" cx="440" cy="534.1538461538462" fill="#FFFFFF" stroke="#8c564b"/><circle r="1" cx="440" cy="514.7692307692307" fill="#FFFFFF" stroke="#8c564b"/><circle r="1" cx="440" cy="516.9230769230769" fill="#FFFFFF" stroke="#8c564b"/><circle r="1" cx="440" cy="557.8461538461538" fill="#FFFFFF" stroke="#8c564b"/><circle r="1" cx="440" cy="516.9230769230769" fill="#FFFFFF" stroke="#8c564b"/><circle r="1" cx="440" cy="538.4615384615385" fill="#FFFFFF" stroke="#8c564b"/><circle r="1" cx="440" cy="523.3846153846154" fill="#FFFFFF" stroke="#8c564b"/><circle r="1" cx="440" cy="544.9230769230769" fill="#FFFFFF" stroke="#8c564b"/><circle r="1" cx="440" cy="519.0769230769231" fill="#FFFFFF" stroke="#8c564b"/><circle r="1" cx="440" cy="516.9230769230769" fill="#FFFFFF" stroke="#8c564b"/><circle r="1" cx="440" cy="557.8461538461538" fill="#FFFFFF" stroke="#8c564b"/></g><g><line x1="507" x2="507" y1="150.7692307692308" y2="432.9230769230769" stroke="#1f77b4" stroke-dasharray="4"/><line x1="497" x2="517" y1="150.7692307692308" y2="150.7692307692308" stroke="#1f77b4"/><line x1="497" x2="517" y1="432.9230769230769" y2="432.9230769230769" stroke="#1f77b4"/><rect x="497" y="215.38461538461536" width="20" height="127.07692307692315" fill="#1f77b4"/><line x1="497" y1="260.61538461538464" x2="517" y2="260.61538461538464" stroke="#FFFFFF"/><circle r="1" cx="507" fill="#FFFFFF" stroke="#1f77b4"/><circle r="1" cx="507" fill="#FFFFFF" stroke="#1f77b4"/><circle r="1" cx="507" fill="#FFFFFF" stroke="#1f77b4"/></g><g><line x1="574" x2="574" y1="434.53846153846155" y2="533.6153846153845" stroke="#bcbd22" stroke-dasharray="4"/><line x1="564" x2="584" y1="434.53846153846155" y2="434.53846153846155" stroke="#bcbd22"/><line x1="564" x2="584" y1="533.6153846153845" y2="533.6153846153845" stroke="#bcbd22"/><rect x="564" y="471.6923076923077" width="20" height="24.769230769230774" fill="#bcbd22"/><line x1="564" y1="487.84615384615387" x2="584" y2="487.84615384615387" stroke="#FFFFFF"/><circle r="1" cx="574" cy="538.4615384615385" fill="#FFFFFF" stroke="#bcbd22"/><circle r="1" cx="574" fill="#FFFFFF" stroke="#bcbd22"/><circle r="1" cx="574" cy="344.61538461538464" fill="#FFFFFF" stroke="#bcbd22"/></g><g><line x1="641" x2="641" y1="21.538461538461526" y2="86.15384615384616" stroke="#9467bd" stroke-dasharray="4"/><line x1="631" x2="651" y1="21.538461538461526" y2="21.538461538461526" stroke="#9467bd"/><line x1="631" x2="651" y1="86.15384615384616" y2="86.15384615384616" stroke="#9467bd"/><rect x="631" y="93.15384615384613" width="20" height="187.38461538461542" fill="#9467bd"/><line x1="631" y1="163.69230769230774" x2="651" y2="163.69230769230774" stroke="#FFFFFF"/><circle r="1" cx="641" fill="#FFFFFF" stroke="#9467bd"/><circle r="1" cx="641" cy="187.38461538461533" fill="#FFFFFF" stroke="#9467bd"/><circle r="1" cx="641" cy="159.3846153846154" fill="#FFFFFF" stroke="#9467bd"/><circle r="1" cx="641" cy="114.15384615384619" fill="#FFFFFF" stroke="#9467bd"/><circle r="1" cx="641" cy="120.61538461538463" fill="#FFFFFF" stroke="#9467bd"/><circle r="1" cx="641" fill="#FFFFFF" stroke="#9467bd"/><circle r="1" cx="641" cy="368.3076923076923" fill="#FFFFFF" stroke="#9467bd"/><circle r="1" cx="641" cy="392" fill="#FFFFFF" stroke="#9467bd"/><circle r="1" cx="641" cy="217.53846153846152" fill="#FFFFFF" stroke="#9467bd"/><circle r="1" cx="641" cy="301.53846153846155" fill="#FFFFFF" stroke="#9467bd"/><circle r="1" cx="641" cy="206.76923076923077" fill="#FFFFFF" stroke="#9467bd"/><circle r="1" cx="641" cy="157.23076923076923" fill="#FFFFFF" stroke="#9467bd"/><circle r="1" cx="641" cy="400.61538461538464" fill="#FFFFFF" stroke="#9467bd"/><circle r="1" cx="641" cy="168.00000000000003" fill="#FFFFFF" stroke="#9467bd"/><circle r="1" cx="641" cy="344.61538461538464" fill="#FFFFFF" stroke="#9467bd"/></g><g><line x1="708" x2="708" y1="560" y2="560" stroke="#ff7f0e" stroke-dasharray="4"/><line x1="698" x2="718" y1="560" y2="560" stroke="#ff7f0e"/><line x1="698" x2="718" y1="560" y2="560" stroke="#ff7f0e"/><rect x="698" y="484.61538461538464" width="20" height="73.23076923076917" fill="#ff7f0e"/><line x1="698" y1="547.0769230769231" x2="718" y2="547.0769230769231" stroke="#FFFFFF"/><circle r="1" cx="708" cy="555.6923076923077" fill="#FFFFFF" stroke="#ff7f0e"/><circle r="1" cx="708" cy="430.7692307692307" fill="#FFFFFF" stroke="#ff7f0e"/><circle r="1" cx="708" cy="460.9230769230769" fill="#FFFFFF" stroke="#ff7f0e"/><circle r="1" cx="708" cy="557.8461538461538" fill="#FFFFFF" stroke="#ff7f0e"/><circle r="1" cx="708" cy="557.8461538461538" fill="#FFFFFF" stroke="#ff7f0e"/><circle r="1" cx="708" cy="523.3846153846154" fill="#FFFFFF" stroke="#ff7f0e"/><circle r="1" cx="708" cy="538.4615384615385" fill="#FFFFFF" stroke="#ff7f0e"/><circle r="1" cx="708" cy="557.8461538461538" fill="#FFFFFF" stroke="#ff7f0e"/><circle r="1" cx="708" cy="557.8461538461538" fill="#FFFFFF" stroke="#ff7f0e"/><circle r="1" cx="708" cy="510.46153846153845" fill="#FFFFFF" stroke="#ff7f0e"/><circle r="1" cx="708" cy="452.3076923076923" fill="#FFFFFF" stroke="#ff7f0e"/><circle r="1" cx="708" cy="476" fill="#FFFFFF" stroke="#ff7f0e"/></g></g><g id="boxplots"><g><text x="52" y="560" dominant-baseline="middle" style="font-family: Arial, sans-serif; font-size: 10px; fill: black; font-weight: normal;">0</text><text x="52" y="560" dominant-baseline="middle" style="font-family: Arial, sans-serif; font-size: 10px; fill: black; font-weight: normal;">0</text><text x="52" y="528.7692307692307" dominant-baseline="middle" style="font-family: Arial, sans-serif; font-size: 10px; fill: black; font-weight: normal;">1.45</text><text x="24" y="546.5384615384615" dominant-baseline="middle" text-anchor="end" style="font-family: Arial, sans-serif; font-size: 10px; fill: black; font-weight: normal;">0.625</text><text x="34" y="495.38461538461536" dominant-baseline="middle" text-anchor="end" style="font-family: Arial, sans-serif; font-size: 10px; fill: black; font-weight: normal;">3</text></g><g><text x="119" y="280" dominant-baseline="middle" style="font-family: Arial, sans-serif; font-size: 10px; fill: black; font-weight: normal;">13</text><text x="119" y="536.3076923076924" dominant-baseline="middle" style="font-family: Arial, sans-serif; font-size: 10px; fill: black; font-weight: normal;">1.1</text><text x="119" y="407.0769230769231" dominant-baseline="middle" style="font-family: Arial, sans-serif; font-size: 10px; fill: black; font-weight: normal;">7.1</text><text x="91" y="462" dominant-baseline="middle" text-anchor="end" style="font-family: Arial, sans-serif; font-size: 10px; fill: black; font-weight: normal;">4.55</text><text x="101" y="357.5384615384615" dominant-baseline="middle" text-anchor="end" style="font-family: Arial, sans-serif; font-size: 10px; fill: black; font-weight: normal;">9.4</text></g><g><text x="186" y="560" dominant-baseline="middle" style="font-family: Arial, sans-serif; font-size: 10px; fill: black; font-weight: normal;">0</text><text x="186" y="560" dominant-baseline="middle" style="font-family: Arial, sans-serif; font-size: 10px; fill: black; font-weight: normal;">0</text><text x="186" y="473.84615384615387" dominant-baseline="middle" style="font-family: Arial, sans-serif; font-size: 10px; fill: black; font-weight: normal;">4</text><text x="158" y="516.9230769230769" dominant-baseline="middle" text-anchor="end" style="font-family: Arial, sans-serif; font-size: 10px; fill: black; font-weight: normal;">2</text><text x="168" y="382.84615384615387" dominant-baseline="middle" text-anchor="end" style="font-family: Arial, sans-serif; font-size: 10px; fill: black; font-weight: normal;">8.225</text></g><g><text x="253" y="560" dominant-baseline="middle" style="font-family: Arial, sans-serif; font-size: 10px; fill: black; font-weight: normal;">0</text><text x="253" y="560" dominant-baseline="middle" style="font-family: Arial, sans-serif; font-size: 10px; fill: black; font-weight: normal;">0</text><text x="253" y="510.46153846153845" dominant-baseline="middle" style="font-family: Arial, sans-serif; font-size: 10px; fill: black; font-weight: normal;">2.3</text><text x="225" y="537.3846153846154" dominant-baseline="middle" text-anchor="end" style="font-family: Arial, sans-serif; font-size: 10px; fill: black; font-weight: normal;">1.05</text><text x="235" y="449.0769230769231" dominant-baseline="middle" text-anchor="end" style="font-family: Arial, sans-serif; font-size: 10px; fill: black; font-weight: normal;">5.15</text></g><g><text x="320" y="560" dominant-baseline="middle" style="font-family: Arial, sans-serif; font-size: 10px; fill: black; font-weight: normal;">0</text><text x="320" y="516.9230769230769" dominant-baseline="middle" style="font-family: Arial, sans-serif; font-size: 10px; fill: black; font-weight: normal;">2</text><text x="320" y="400.61538461538464" dominant-baseline="middle" style="font-family: Arial, sans-serif; font-size: 10px; fill: black; font-weight: normal;">7.4</text><text x="292" y="430.7692307692307" dominant-baseline="middle" text-anchor="end" style="font-family: Arial, sans-serif; font-size: 10px; fill: black; font-weight: normal;">6</text><text x="302" y="323.07692307692304" dominant-baseline="middle" text-anchor="end" style="font-family: Arial, sans-serif; font-size: 10px; fill: black; font-weight: normal;">11</text></g><g><text x="387" y="135.6923076923077" dominant-baseline="middle" style="font-family: Arial, sans-serif; font-size: 10px; fill: black; font-weight: normal;">19.7</text><text x="387" y="452.3076923076923" dominant-baseline="middle" style="font-family: Arial, sans-serif; font-size: 10px; fill: black; font-weight: normal;">5</text><text x="387" y="280" dominant-baseline="middle" style="font-family: Arial, sans-serif; font-size: 10px; fill: black; font-weight: normal;">13</text><text x="359" y="327.38461538461536" dominant-baseline="middle" text-anchor="end" style="font-family: Arial, sans-serif; font-size: 10px; fill: black; font-weight: normal;">10.8</text><text x="369" y="239.0769230769231" dominant-baseline="middle" text-anchor="end" style="font-family: Arial, sans-serif; font-size: 10px; fill: black; font-weight: normal;">14.9</text></g><g><text x="454" y="560" dominant-baseline="middle" style="font-family: Arial, sans-serif; font-size: 10px; fill: black; font-weight: normal;">0</text><text x="454" y="560" dominant-baseline="middle" style="font-family: Arial, sans-serif; font-size: 10px; fill: black; font-weight: normal;">0</text><text x="454" y="525.5384615384615" dominant-baseline="middle" style="font-family: Arial, sans-serif; font-size: 10px; fill: black; font-weight: normal;">1.6</text><text x="426" y="544.9230769230769" dominant-baseline="middle" text-anchor="end" style="font-family: Arial, sans-serif; font-size: 10px; fill: black; font-weight: normal;">0.7</text><text x="436" y="516.9230769230769" dominant-baseline="middle" text-anchor="end" style="font-family: Arial, sans-serif; font-size: 10px; fill: black; font-weight: normal;">2</text></g><g><text x="521" y="150.7692307692308" dominant-baseline="middle" style="font-family: Arial, sans-serif; font-size: 10px; fill: black; font-weight: normal;">19</text><text x="521" y="432.9230769230769" dominant-baseline="middle" style="font-family: Arial, sans-serif; font-size: 10px; fill: black; font-weight: normal;">5.9</text><text x="521" y="260.61538461538464" dominant-baseline="middle" style="font-family: Arial, sans-serif; font-size: 10px; fill: black; font-weight: normal;">13.9</text><text x="493" y="342.4615384615385" dominant-baseline="middle" text-anchor="end" style="font-family: Arial, sans-serif; font-size: 10px; fill: black; font-weight: normal;">10.1</text><text x="503" y="215.38461538461536" dominant-baseline="middle" text-anchor="end" style="font-family: Arial, sans-serif; font-size: 10px; fill: black; font-weight: normal;">16</text></g><g><text x="588" y="434.53846153846155" dominant-baseline="middle" style="font-family: Arial, sans-serif; font-size: 10px; fill: black; font-weight: normal;">5.824999999999999</text><text x="588" y="533.6153846153845" dominant-baseline="middle" style="font-family: Arial, sans-serif; font-size: 10px; fill: black; font-weight: normal;">1.225000000000001</text><text x="588" y="487.84615384615387" dominant-baseline="middle" style="font-family: Arial, sans-serif; font-size: 10px; fill: black; font-weight: normal;">3.35</text><text x="560" y="496.46153846153845" dominant-baseline="middle" text-anchor="end" style="font-family: Arial, sans-serif; font-size: 10px; fill: black; font-weight: normal;">2.95</text><text x="570" y="471.6923076923077" dominant-baseline="middle" text-anchor="end" style="font-family: Arial, sans-serif; font-size: 10px; fill: black; font-weight: normal;">4.1</text></g><g><text x="655" y="21.538461538461526" dominant-baseline="middle" style="font-family: Arial, sans-serif; font-size: 10px; fill: black; font-weight: normal;">25</text><text x="655" y="86.15384615384616" dominant-baseline="middle" style="font-family: Arial, sans-serif; font-size: 10px; fill: black; font-weight: normal;">22</text><text x="655" y="163.69230769230774" dominant-baseline="middle" style="font-family: Arial, sans-serif; font-size: 10px; fill: black; font-weight: normal;">18.4</text><text x="627" y="280.53846153846155" dominant-baseline="middle" text-anchor="end" style="font-family: Arial, sans-serif; font-size: 10px; fill: black; font-weight: normal;">12.975</text><text x="637" y="93.15384615384613" dominant-baseline="middle" text-anchor="end" style="font-family: Arial, sans-serif; font-size: 10px; fill: black; font-weight: normal;">21.675</text></g><g><text x="722" y="560" dominant-baseline="middle" style="font-family: Arial, sans-serif; font-size: 10px; fill: black; font-weight: normal;">0</text><text x="722" y="560" dominant-baseline="middle" style="font-family: Arial, sans-serif; font-size: 10px; fill: black; font-weight: normal;">0</text><text x="722" y="547.0769230769231" dominant-baseline="middle" style="font-family: Arial, sans-serif; font-size: 10px; fill: black; font-weight: normal;">0.6000000000000001</text><text x="694" y="557.8461538461538" dominant-baseline="middle" text-anchor="end" style="font-family: Arial, sans-serif; font-size: 10px; fill: black; font-weight: normal;">0.1</text><text x="704" y="484.61538461538464" dominant-baseline="middle" text-anchor="end" style="font-family: Arial, sans-serif; font-size: 10px; fill: black; font-weight: normal;">3.5</text></g></g></g></svg>