<svg xmlns="http://www.w3.org/2000/svg" width="805" height="600"><rect width="805" height="600" x="0" y="0" fill="#FFFFFF" id="background"/><g transform="translate(50,10)" id="viz"><g id="y axis" fill="none" font-size="10" font-family="sans-serif" text-anchor="end"><path class="domain" stroke="currentColor" d="M-6,560.5H0.5V0.5H-6"/><g class="tick" opacity="1" transform="translate(0,560.5)"><line stroke="currentColor" x2="-6"/><text fill="currentColor" x="-9" dy="0.32em">3</text></g><g class="tick" opacity="1" transform="translate(0,517.4230769230769)"><line stroke="currentColor" x2="-6"/><text fill="currentColor" x="-9" dy="0.32em">4</text></g><g class="tick" opacity="1" transform="translate(0,474.34615384615387)"><line stroke="currentColor" x2="-6"/><text fill="currentColor" x="-9" dy="0.32em">5</text></g><g class="tick" opacity="1" transform="translate(0,431.2692307692307)"><line stroke="currentColor" x2="-6"/><text fill="currentColor" x="-9" dy="0.32em">6</text></g><g class="tick" opacity="1" transform="translate(0,388.1923076923077)"><line stroke="currentColor" x2="-6"/><text fill="currentColor" x="-9" dy="0.32em">7</text></g><g class="tick" opacity="1" transform="translate(0,345.11538461538464)"><line stroke="currentColor" x2="-6"/><text fill="currentColor" x="-9" dy="0.32em">8</text></g><g class="tick" opacity="1" transform="translate(0,302.03846153846155)"><line stroke="currentColor" x2="-6"/><text fill="currentColor" x="-9" dy="0.32em">9</text></g><g class="tick" opacity="1" transform="translate(0,258.96153846153845)"><line stroke="currentColor" x2="-6"/><text fill="currentColor" x="-9" dy="0.32em">10</text></g><g class="tick" opacity="1" transform="translate(0,215.88461538461536)"><line stroke="currentColor" x2="-6"/><text fill="currentColor" x="-9" dy="0.32em">11</text></g><g class="tick" opacity="1" transform="translate(0,172.80769230769232)"><line stroke="currentColor" x2="-6"/><text fill="currentColor" x="-9" dy="0.32em">12</text></g><g class="tick" opacity="1" transform="translate(0,129.7307692307692)"><line stroke="currentColor" x2="-6"/><text fill="currentColor" x="-9" dy="0.32em">13</text></g><g class="tick" opacity="1" transform="translate(0,86.65384615384616)"><line stroke="currentColor" x2="-6"/><text fill="currentColor" x="-9" dy="0.32em">14</text></g><g class="tick" opacity="1" transform="translate(0,43.57692307692305)"><line stroke="currentColor" x2="-6"/><text fill="currentColor" x="-9" dy="0.32em">15</text></g><g class="tick" opacity="1" transform="translate(0,0.5)"><line stroke="currentColor" x2="-6"/><text fill="currentColor" x="-9" dy="0.32em">16</text></g><text x="4" text-anchor="start" dominant-baseline="hanging" style="font-family: Arial, sans-serif; font-size: 12px; fill: rgb(123, 123, 123); font-weight: bold;">governance_score</text></g><g id="x axis" transform="translate(0,560)" fill="none" font-size="10" font-family="sans-serif" text-anchor="middle"><path class="domain" stroke="currentColor" d="M0.5,6V0.5H745.5V6"/><g class="tick" opacity="1" transform="translate(38.5,0)"><line stroke="currentColor" y2="6"/><text fill="currentColor" y="9" dy="0.71em">Healthcare</text></g><g class="tick" opacity="1" transform="translate(105.5,0)"><line stroke="currentColor" y2="6"/><text fill="currentColor" y="9" dy="0.71em">Industrials</text></g><g class="tick" opacity="1" transform="translate(172.5,0)"><line stroke="currentColor" y2="6"/><text fill="currentColor" y="9" dy="0.71em">Consumer Cyclical</text></g><g class="tick" opacity="1" transform="translate(239.5,0)"><line stroke="currentColor" y2="6"/><text fill="currentColor" y="9" dy="0.71em">Technology</text></g><g class="tick" opacity="1" transform="translate(306.5,0)"><line stroke="currentColor" y2="6"/><text fill="currentColor" y="9" dy="0.71em">Consumer Defensive</text></g><g class="tick" opacity="1" transform="translate(373.5,0)"><line stroke="currentColor" y2="6"/><text fill="currentColor" y="9" dy="0.71em">Utilities</text></g><g class="tick" opacity="1" transform="translate(440.5,0)"><line stroke="currentColor" y2="6"/><text fill="currentColor" y="9" dy="0.71em">Financial Services</text></g><g class="tick" opacity="1" transform="translate(507.5,0)"><line stroke="currentColor" y2="6"/><text fill="currentColor" y="9" dy="0.71em">Basic Materials</text></g><g class="tick" opacity="1" transform="translate(574.5,0)"><line stroke="currentColor" y2="6"/><text fill="currentColor" y="9" dy="0.71em">Real Estate</text></g><g class="tick" opacity="1" transform="translate(641.5,0)"><line stroke="currentColor" y2="6"/><text fill="currentColor" y="9" dy="0.71em">Energy</text></g><g class="tick" opacity="1" transform="translate(708.5,0)"><line stroke="currentColor" y2="6"/><text fill="currentColor" y="9" dy="0.71em">Communication Services</text></g></g><g id="boxplots"><g><line x1="38" x2="38" y1="689.2307692307693" y2="486.7692307692308" stroke="#e377c2" stroke-dasharray="4"/><line x1="28" x2="48" y1="689.2307692307693" y2="689.2307692307693" stroke="#e377c2"/><line x1="28" x2="48" y1="486.7692307692308" y2="486.7692307692308" stroke="#e377c2"/><rect x="28" y="315.53846153846155" width="20" height="103.38461538461536" fill="#e377c2"/><line x1="28" y1="368.3076923076923" x2="48" y2="368.3076923076923" stroke="#FFFFFF"/><circle r="1" cx="38" cy="417.84615384615387" fill="#FFFFFF" stroke="#e377c2"/><circle r="1" cx="38" cy="262.7692307692308" fill="#FFFFFF" stroke="#e377c2"/><circle r="1" cx="38" cy="465.23076923076917" fill="#FFFFFF" stroke="#e377c2"/><circle r="1" cx="38" cy="327.38461538461536" fill="#FFFFFF" stroke="#e377c2"/><circle r="1" cx="38" fill="#FFFFFF" stroke="#e377c2"/><circle r="1" cx="38" cy="348.9230769230769" fill="#FFFFFF" stroke="#e377c2"/><circle r="1" cx="38" cy="374.76923076923083" fill="#FFFFFF" stroke="#e377c2"/><circle r="1" cx="38" cy="366.15384615384613" fill="#FFFFFF" stroke="#e377c2"/><circle r="1" cx="38" cy="353.2307692307692" fill="#FFFFFF" stroke="#e377c2"/><circle r="1" cx="38" cy="387.6923076923077" fill="#FFFFFF" stroke="#e377c2"/><circle r="1" cx="38" cy="361.84615384615387" fill="#FFFFFF" stroke="#e377c2"/><circle r="1" cx="38" cy="232.61538461538467" fill="#FFFFFF" stroke="#e377c2"/><circle r="1" cx="38" cy="473.84615384615387" fill="#FFFFFF" stroke="#e377c2"/><circle r="1" cx="38" cy="443.6923076923077" fill="#FFFFFF" stroke="#e377c2"/><circle r="1" cx="38" cy="379.0769230769231" fill="#FFFFFF" stroke="#e377c2"/><circle r="1" cx="38" cy="430.7692307692307" fill="#FFFFFF" stroke="#e377c2"/><circle r="1" cx="38" fill="#FFFFFF" stroke="#e377c2"/><circle r="1" cx="38" fill="#FFFFFF" stroke="#e377c2"/><circle r="1" cx="38" cy="413.53846153846155" fill="#FFFFFF" stroke="#e377c2"/><circle r="1" cx="38" cy="336.00000000000006" fill="#FFFFFF" stroke="#e377c2"/><circle r="1" cx="38" cy="465.23076923076917" fill="#FFFFFF" stroke="#e377c2"/><circle r="1" cx="38" cy="344.61538461538464" fill="#FFFFFF" stroke="#e377c2"/><circle r="1" cx="38" cy="344.61538461538464" fill="#FFFFFF" stroke="#e377c2"/><circle r="1" cx="38" cy="361.84615384615387" fill="#FFFFFF" stroke="#e377c2"/><circle r="1" cx="38" cy="344.61538461538464" fill="#FFFFFF" stroke="#e377c2"/><circle r="1" cx="38" cy="370.46153846153845" fill="#FFFFFF" stroke="#e377c2"/><circle r="1" cx="38" cy="249.8461538461539" fill="#FFFFFF" stroke="#e377c2"/><circle r="1" cx="38" cy="430.7692307692307" fill="#FFFFFF" stroke="#e377c2"/><circle r="1" cx="38" cy="435.07692307692304" fill="#FFFFFF" stroke="#e377c2"/><circle r="1" cx="38" cy="301.53846153846155" fill="#FFFFFF" stroke="#e377c2"/><circle r="1" cx="38" cy="430.7692307692307" fill="#FFFFFF" stroke="#e377c2"/><circle r="1" cx="38" cy="383.3846153846154" fill="#FFFFFF" stroke="#e377c2"/><circle r="1" cx="38" cy="379.0769230769231" fill="#FFFFFF" stroke="#e377c2"/><circle r="1" cx="38" cy="275.69230769230774" fill="#FFFFFF" stroke="#e377c2"/><circle r="1" cx="38" cy="318.7692307692308" fill="#FFFFFF" stroke="#e377c2"/><circle r="1" cx="38" cy="383.3846153846154" fill="#FFFFFF" stroke="#e377c2"/><circle r="1" cx="38" cy="189.53846153846155" fill="#FFFFFF" stroke="#e377c2"/><circle r="1" cx="38" cy="452.3076923076923" fill="#FFFFFF" stroke="#e377c2"/><circle r="1" cx="38" cy="361.84615384615387" fill="#FFFFFF" stroke="#e377c2"/><circle r="1" cx="38" fill="#FFFFFF" stroke="#e377c2"/><circle r="1" cx="38" cy="275.69230769230774" fill="#FFFFFF" stroke="#e377c2"/><circle r="1" cx="38" fill="#FFFFFF" stroke="#e377c2"/><circle r="1" cx="38" cy="473.84615384615387" fill="#FFFFFF" stroke="#e377c2"/><circle r="1" cx="38" fill="#FFFFFF" stroke="#e377c2"/><circle r="1" cx="38" cy="271.3846153846154" fill="#FFFFFF" stroke="#e377c2"/><circle r="1" cx="38" cy="387.6923076923077" fill="#FFFFFF" stroke="#e377c2"/><circle r="1" cx="38" cy="215.38461538461536" fill="#FFFFFF" stroke="#e377c2"/><circle r="1" cx="38" fill="#FFFFFF" stroke="#e377c2"/><circle r="1" cx="38" cy="223.99999999999994" fill="#FFFFFF" stroke="#e377c2"/><circle r="1" cx="38" fill="#FFFFFF" stroke="#e377c2"/><circle r="1" cx="38" cy="301.53846153846155" fill="#FFFFFF" stroke="#e377c2"/><circle r="1" cx="38" cy="409.2307692307693" fill="#FFFFFF" stroke="#e377c2"/><circle r="1" cx="38" cy="301.53846153846155" fill="#FFFFFF" stroke="#e377c2"/><circle r="1" cx="38" cy="435.07692307692304" fill="#FFFFFF" stroke="#e377c2"/><circle r="1" cx="38" cy="400.61538461538464" fill="#FFFFFF" stroke="#e377c2"/><circle r="1" cx="38" fill="#FFFFFF" stroke="#e377c2"/><circle r="1" cx="38" cy="422.15384615384613" fill="#FFFFFF" stroke="#e377c2"/><circle r="1" cx="38" cy="486.7692307692308" fill="#FFFFFF" stroke="#e377c2"/><circle r="1" cx="38" fill="#FFFFFF" stroke="#e377c2"/><circle r="1" cx="38" cy="387.6923076923077" fill="#FFFFFF" stroke="#e377c2"/><circle r="1" cx="38" cy="344.61538461538464" fill="#FFFFFF" stroke="#e377c2"/><circle r="1" cx="38" cy="305.8461538461538" fill="#FFFFFF" stroke="#e377c2"/></g><g><line x1="105" x2="105" y1="361.84615384615387" y2="542.7692307692307" stroke="#7f7f7f" stroke-dasharray="4"/><line x1="95" x2="115" y1="361.84615384615387" y2="361.84615384615387" stroke="#7f7f7f"/><line x1="95" x2="115" y1="542.7692307692307" y2="542.7692307692307" stroke="#7f7f7f"/><rect x="95" y="387.6923076923077" width="20" height="71.0769230769231" fill="#7f7f7f"/><line x1="95" y1="430.7692307692307" x2="115" y2="430.7692307692307" stroke="#FFFFFF"/><circle r="1" cx="105" fill="#FFFFFF" stroke="#7f7f7f"/><circle r="1" cx="105" cy="348.9230769230769" fill="#FFFFFF" stroke="#7f7f7f"/><circle r="1" cx="105" fill="#FFFFFF" stroke="#7f7f7f"/><circle r="1" cx="105" cy="323.07692307692304" fill="#FFFFFF" stroke="#7f7f7f"/><circle r="1" cx="105" cy="189.53846153846155" fill="#FFFFFF" stroke="#7f7f7f"/><circle r="1" cx="105" fill="#FFFFFF" stroke="#7f7f7f"/><circle r="1" cx="105" fill="#FFFFFF" stroke="#7f7f7f"/><circle r="1" cx="105" cy="323.07692307692304" fill="#FFFFFF" stroke="#7f7f7f"/><circle r="1" cx="105" fill="#FFFFFF" stroke="#7f7f7f"/><circle r="1" cx="105" fill="#FFFFFF" stroke="#7f7f7f"/><circle r="1" cx="105" fill="#FFFFFF" stroke="#7f7f7f"/><circle r="1" cx="105" cy="357.5384615384615" fill="#FFFFFF" stroke="#7f7f7f"/><circle r="1" cx="105" cy="547.0769230769231" fill="#FFFFFF" stroke="#7f7f7f"/><circle r="1" cx="105" fill="#FFFFFF" stroke="#7f7f7f"/><circle r="1" cx="105" fill="#FFFFFF" stroke="#7f7f7f"/><circle r="1" cx="105" cy="344.61538461538464" fill="#FFFFFF" stroke="#7f7f7f"/><circle r="1" cx="105" fill="#FFFFFF" stroke="#7f7f7f"/><circle r="1" cx="105" cy="301.53846153846155" fill="#FFFFFF" stroke="#7f7f7f"/><circle r="1" cx="105" cy="560" fill="#FFFFFF" stroke="#7f7f7f"/><circle r="1" cx="105" fill="#FFFFFF" stroke="#7f7f7f"/><circle r="1" cx="105" cy="344.61538461538464" fill="#FFFFFF" stroke="#7f7f7f"/><circle r="1" cx="105" cy="547.0769230769231" fill="#FFFFFF" stroke="#7f7f7f"/></g><g><line x1="172" x2="172" y1="277.3076923076923" y2="560" stroke="#2ca02c" stroke-dasharray="4"/><line x1="162" x2="182" y1="277.3076923076923" y2="277.3076923076923" stroke="#2ca02c"/><line x1="162" x2="182" y1="560" y2="560" stroke="#2ca02c"/><rect x="162" y="421.0769230769231" width="20" height="95.84615384615381" fill="#2ca02c"/><line x1="162" y1="484.61538461538464" x2="182" y2="484.61538461538464" stroke="#FFFFFF"/><circle r="1" cx="172" fill="#FFFFFF" stroke="#2ca02c"/><circle r="1" cx="172" cy="262.7692307692308" fill="#FFFFFF" stroke="#2ca02c"/><circle r="1" cx="172" fill="#FFFFFF" stroke="#2ca02c"/><circle r="1" cx="172" fill="#FFFFFF" stroke="#2ca02c"/><circle r="1" cx="172" cy="267.07692307692304" fill="#FFFFFF" stroke="#2ca02c"/><circle r="1" cx="172" cy="236.92307692307696" fill="#FFFFFF" stroke="#2ca02c"/><circle r="1" cx="172" cy="275.69230769230774" fill="#FFFFFF" stroke="#2ca02c"/><circle r="1" cx="172" fill="#FFFFFF" stroke="#2ca02c"/><circle r="1" cx="172" cy="215.38461538461536" fill="#FFFFFF" stroke="#2ca02c"/></g><g><line x1="239" x2="239" y1="689.2307692307693" y2="516.9230769230769" stroke="#17becf" stroke-dasharray="4"/><line x1="229" x2="249" y1="689.2307692307693" y2="689.2307692307693" stroke="#17becf"/><line x1="229" x2="249" y1="516.9230769230769" y2="516.9230769230769" stroke="#17becf"/><rect x="229" y="420" width="20" height="53.84615384615387" fill="#17becf"/><line x1="229" y1="443.6923076923077" x2="249" y2="443.6923076923077" stroke="#FFFFFF"/><circle r="1" cx="239" cy="292.92307692307696" fill="#FFFFFF" stroke="#17becf"/><circle r="1" cx="239" cy="482.4615384615385" fill="#FFFFFF" stroke="#17becf"/><circle r="1" cx="239" cy="491.0769230769231" fill="#FFFFFF" stroke="#17becf"/><circle r="1" cx="239" cy="435.07692307692304" fill="#FFFFFF" stroke="#17becf"/><circle r="1" cx="239" cy="516.9230769230769" fill="#FFFFFF" stroke="#17becf"/><circle r="1" cx="239" cy="400.61538461538464" fill="#FFFFFF" stroke="#17becf"/><circle r="1" cx="239" cy="469.53846153846155" fill="#FFFFFF" stroke="#17becf"/><circle r="1" cx="239" fill="#FFFFFF" stroke="#17becf"/><circle r="1" cx="239" cy="387.6923076923077" fill="#FFFFFF" stroke="#17becf"/><circle r="1" cx="239" cy="473.84615384615387" fill="#FFFFFF" stroke="#17becf"/><circle r="1" cx="239" cy="353.2307692307692" fill="#FFFFFF" stroke="#17becf"/><circle r="1" cx="239" cy="400.61538461538464" fill="#FFFFFF" stroke="#17becf"/><circle r="1" cx="239" cy="413.53846153846155" fill="#FFFFFF" stroke="#17becf"/><circle r="1" cx="239" fill="#FFFFFF" stroke="#17becf"/><circle r="1" cx="239" cy="486.7692307692308" fill="#FFFFFF" stroke="#17becf"/><circle r="1" cx="239" cy="516.9230769230769" fill="#FFFFFF" stroke="#17becf"/><circle r="1" cx="239" cy="495.38461538461536" fill="#FFFFFF" stroke="#17becf"/><circle r="1" cx="239" cy="413.53846153846155" fill="#FFFFFF" stroke="#17becf"/><circle r="1" cx="239" cy="448" fill="#FFFFFF" stroke="#17becf"/><circle r="1" cx="239" cy="473.84615384615387" fill="#FFFFFF" stroke="#17becf"/><circle r="1" cx="239" fill="#FFFFFF" stroke="#17becf"/><circle r="1" cx="239" fill="#FFFFFF" stroke="#17becf"/><circle r="1" cx="239" cy="473.84615384615387" fill="#FFFFFF" stroke="#17becf"/><circle r="1" cx="239" cy="443.6923076923077" fill="#FFFFFF" stroke="#17becf"/><circle r="1" cx="239" cy="422.15384615384613" fill="#FFFFFF" stroke="#17becf"/><circle r="1" cx="239" cy="443.6923076923077" fill="#FFFFFF" stroke="#17becf"/><circle r="1" cx="239" cy="473.84615384615387" fill="#FFFFFF" stroke="#17becf"/><circle r="1" cx="239" cy="387.6923076923077" fill="#FFFFFF" stroke="#17becf"/><circle r="1" cx="239" cy="460.9230769230769" fill="#FFFFFF" stroke="#17becf"/><circle r="1" cx="239" cy="430.7692307692307" fill="#FFFFFF" stroke="#17becf"/><circle r="1" cx="239" cy="430.7692307692307" fill="#FFFFFF" stroke="#17becf"/><circle r="1" cx="239" cy="361.84615384615387" fill="#FFFFFF" stroke="#17becf"/><circle r="1" cx="239" cy="387.6923076923077" fill="#FFFFFF" stroke="#17becf"/><circle r="1" cx="239" cy="486.7692307692308" fill="#FFFFFF" stroke="#17becf"/><circle r="1" cx="239" cy="430.7692307692307" fill="#FFFFFF" stroke="#17becf"/><circle r="1" cx="239" cy="465.23076923076917" fill="#FFFFFF" stroke="#17becf"/><circle r="1" cx="239" cy="430.7692307692307" fill="#FFFFFF" stroke="#17becf"/><circle r="1" cx="239" cy="473.84615384615387" fill="#FFFFFF" stroke="#17becf"/><circle r="1" cx="239" cy="478.15384615384613" fill="#FFFFFF" stroke="#17becf"/><circle r="1" cx="239" cy="456.6153846153846" fill="#FFFFFF" stroke="#17becf"/><circle r="1" cx="239" cy="473.84615384615387" fill="#FFFFFF" stroke="#17becf"/><circle r="1" cx="239" cy="387.6923076923077" fill="#FFFFFF" stroke="#17becf"/><circle r="1" cx="239" fill="#FFFFFF" stroke="#17becf"/><circle r="1" cx="239" cy="460.9230769230769" fill="#FFFFFF" stroke="#17becf"/><circle r="1" cx="239" cy="456.6153846153846" fill="#FFFFFF" stroke="#17becf"/><circle r="1" cx="239" cy="439.38461538461536" fill="#FFFFFF" stroke="#17becf"/><circle r="1" cx="239" cy="417.84615384615387" fill="#FFFFFF" stroke="#17becf"/><circle r="1" cx="239" cy="430.7692307692307" fill="#FFFFFF" stroke="#17becf"/><circle r="1" cx="239" cy="430.7692307692307" fill="#FFFFFF" stroke="#17becf"/><circle r="1" cx="239" cy="448" fill="#FFFFFF" stroke="#17becf"/><circle r="1" cx="239" cy="443.6923076923077" fill="#FFFFFF" stroke="#17becf"/><circle r="1" cx="239" fill="#FFFFFF" stroke="#17becf"/><circle r="1" cx="239" cy="456.6153846153846" fill="#FFFFFF" stroke="#17becf"/><circle r="1" cx="239" cy="357.5384615384615" fill="#FFFFFF" stroke="#17becf"/><circle r="1" cx="239" cy="387.6923076923077" fill="#FFFFFF" stroke="#17becf"/><circle r="1" cx="239" cy="448" fill="#FFFFFF" stroke="#17becf"/><circle r="1" cx="239" fill="#FFFFFF" stroke="#17becf"/><circle r="1" cx="239" cy="512.6153846153846" fill="#FFFFFF" stroke="#17becf"/><circle r="1" cx="239" cy="460.9230769230769" fill="#FFFFFF" stroke="#17becf"/><circle r="1" cx="239" cy="379.0769230769231" fill="#FFFFFF" stroke="#17becf"/><circle r="1" cx="239" fill="#FFFFFF" stroke="#17becf"/><circle r="1" cx="239" cy="473.84615384615387" fill="#FFFFFF" stroke="#17becf"/><circle r="1" cx="239" cy="491.0769230769231" fill="#FFFFFF" stroke="#17becf"/><circle r="1" cx="239" cy="426.46153846153845" fill="#FFFFFF" stroke="#17becf"/><circle r="1" cx="239" cy="430.7692307692307" fill="#FFFFFF" stroke="#17becf"/><circle r="1" cx="239" fill="#FFFFFF" stroke="#17becf"/><circle r="1" cx="239" cy="435.07692307692304" fill="#FFFFFF" stroke="#17becf"/><circle r="1" cx="239" cy="426.46153846153845" fill="#FFFFFF" stroke="#17becf"/><circle r="1" cx="239" fill="#FFFFFF" stroke="#17becf"/></g><g><line x1="306" x2="306" y1="327.3846153846155" y2="560" stroke="#d62728" stroke-dasharray="4"/><line x1="296" x2="316" y1="327.3846153846155" y2="327.3846153846155" stroke="#d62728"/><line x1="296" x2="316" y1="560" y2="560" stroke="#d62728"/><rect x="296" y="417.84615384615387" width="20" height="60.307692307692264" fill="#d62728"/><line x1="296" y1="452.3076923076923" x2="316" y2="452.3076923076923" stroke="#FFFFFF"/><circle r="1" cx="306" fill="#FFFFFF" stroke="#d62728"/><circle r="1" cx="306" cy="280" fill="#FFFFFF" stroke="#d62728"/><circle r="1" cx="306" cy="258.46153846153845" fill="#FFFFFF" stroke="#d62728"/></g><g><line x1="373" x2="373" y1="374.76923076923083" y2="508.3076923076923" stroke="#cccccc" stroke-dasharray="4"/><line x1="363" x2="383" y1="374.76923076923083" y2="374.76923076923083" stroke="#cccccc"/><line x1="363" x2="383" y1="508.3076923076923" y2="508.3076923076923" stroke="#cccccc"/><rect x="363" y="420" width="20" height="53.84615384615387" fill="#cccccc"/><line x1="363" y1="439.38461538461536" x2="383" y2="439.38461538461536" stroke="#FFFFFF"/><circle r="1" cx="373" fill="#FFFFFF" stroke="#cccccc"/><circle r="1" cx="373" fill="#FFFFFF" stroke="#cccccc"/></g><g><line x1="440" x2="440" y1="689.2307692307693" y2="422.15384615384613" stroke="#8c564b" stroke-dasharray="4"/><line x1="430" x2="450" y1="689.2307692307693" y2="689.2307692307693" stroke="#8c564b"/><line x1="430" x2="450" y1="422.15384615384613" y2="422.15384615384613" stroke="#8c564b"/><rect x="430" y="204.61538461538464" width="20" height="119.53846153846155" fill="#8c564b"/><line x1="430" y1="258.46153846153845" x2="450" y2="258.46153846153845" stroke="#FFFFFF"/><circle r="1" cx="440" cy="258.46153846153845" fill="#FFFFFF" stroke="#8c564b"/><circle r="1" cx="440" cy="86.15384615384616" fill="#FFFFFF" stroke="#8c564b"/><circle r="1" cx="440" cy="215.38461538461536" fill="#FFFFFF" stroke="#8c564b"/><circle r="1" cx="440" cy="236.92307692307696" fill="#FFFFFF" stroke="#8c564b"/><circle r="1" cx="440" cy="258.46153846153845" fill="#FFFFFF" stroke="#8c564b"/><circle r="1" cx="440" cy="137.84615384615378" fill="#FFFFFF" stroke="#8c564b"/><circle r="1" cx="440" fill="#FFFFFF" stroke="#8c564b"/><circle r="1" cx="440" cy="262.7692307692308" fill="#FFFFFF" stroke="#8c564b"/><circle r="1" cx="440" cy="206.76923076923077" fill="#FFFFFF" stroke="#8c564b"/><circle r="1" cx="440" cy="387.6923076923077" fill="#FFFFFF" stroke="#8c564b"/><circle r="1" cx="440" cy="206.76923076923077" fill="#FFFFFF" stroke="#8c564b"/><circle r="1" cx="440" cy="280" fill="#FFFFFF" stroke="#8c564b"/><circle r="1" cx="440" cy="228.30769230769238" fill="#FFFFFF" stroke="#8c564b"/><circle r="1" cx="440" cy="180.9230769230769" fill="#FFFFFF" stroke="#8c564b"/><circle r="1" cx="440" cy="232.61538461538467" fill="#FFFFFF" stroke="#8c564b"/><circle r="1" cx="440" cy="232.61538461538467" fill="#FFFFFF" stroke="#8c564b"/><circle r="1" cx="440" cy="198.15384615384613" fill="#FFFFFF" stroke="#8c564b"/><circle r="1" cx="440" cy="137.84615384615378" fill="#FFFFFF" stroke="#8c564b"/><circle r="1" cx="440" cy="129.2307692307692" fill="#FFFFFF" stroke="#8c564b"/><circle r="1" cx="440" cy="422.15384615384613" fill="#FFFFFF" stroke="#8c564b"/><circle r="1" cx="440" cy="301.53846153846155" fill="#FFFFFF" stroke="#8c564b"/><circle r="1" cx="440" cy="215.38461538461536" fill="#FFFFFF" stroke="#8c564b"/><circle r="1" cx="440" cy="404.92307692307696" fill="#FFFFFF" stroke="#8c564b"/><circle r="1" cx="440" cy="370.46153846153845" fill="#FFFFFF" stroke="#8c564b"/><circle r="1" cx="440" cy="215.38461538461536" fill="#FFFFFF" stroke="#8c564b"/><circle r="1" cx="440" cy="163.69230769230774" fill="#FFFFFF" stroke="#8c564b"/><circle r="1" cx="440" cy="361.84615384615387" fill="#FFFFFF" stroke="#8c564b"/><circle r="1" cx="440" cy="301.53846153846155" fill="#FFFFFF" stroke="#8c564b"/><circle r="1" cx="440" cy="400.61538461538464" fill="#FFFFFF" stroke="#8c564b"/><circle r="1" cx="440" cy="258.46153846153845" fill="#FFFFFF" stroke="#8c564b"/><circle r="1" cx="440" cy="185.23076923076925" fill="#FFFFFF" stroke="#8c564b"/><circle r="1" cx="440" cy="258.46153846153845" fill="#FFFFFF" stroke="#8c564b"/><circle r="1" cx="440" cy="189.53846153846155" fill="#FFFFFF" stroke="#8c564b"/><circle r="1" cx="440" cy="258.46153846153845" fill="#FFFFFF" stroke="#8c564b"/><circle r="1" cx="440" cy="318.7692307692308" fill="#FFFFFF" stroke="#8c564b"/><circle r="1" cx="440" cy="460.9230769230769" fill="#FFFFFF" stroke="#8c564b"/><circle r="1" cx="440" cy="284.30769230769226" fill="#FFFFFF" stroke="#8c564b"/><circle r="1" cx="440" fill="#FFFFFF" stroke="#8c564b"/><circle r="1" cx="440" cy="193.84615384615384" fill="#FFFFFF" stroke="#8c564b"/><circle r="1" cx="440" cy="271.3846153846154" fill="#FFFFFF" stroke="#8c564b"/><circle r="1" cx="440" cy="344.61538461538464" fill="#FFFFFF" stroke="#8c564b"/><circle r="1" cx="440" cy="215.38461538461536" fill="#FFFFFF" stroke="#8c564b"/><circle r="1" cx="440" cy="460.9230769230769" fill="#FFFFFF" stroke="#8c564b"/><circle r="1" cx="440" cy="249.8461538461539" fill="#FFFFFF" stroke="#8c564b"/><circle r="1" cx="440" cy="262.7692307692308" fill="#FFFFFF" stroke="#8c564b"/><circle r="1" cx="440" cy="219.69230769230765" fill="#FFFFFF" stroke="#8c564b"/><circle r="1" cx="440" cy="305.8461538461538" fill="#FFFFFF" stroke="#8c564b"/><circle r="1" cx="440" cy="318.7692307692308" fill="#FFFFFF" stroke="#8c564b"/><circle r="1" cx="440" cy="456.6153846153846" fill="#FFFFFF" stroke="#8c564b"/><circle r="1" cx="440" cy="370.46153846153845" fill="#FFFFFF" stroke="#8c564b"/><circle r="1" cx="440" cy="155.0769230769231" fill="#FFFFFF" stroke="#8c564b"/><circle r="1" cx="440" cy="180.9230769230769" fill="#FFFFFF" stroke="#8c564b"/><circle r="1" cx="440" cy="340.3076923076923" fill="#FFFFFF" stroke="#8c564b"/><circle r="1" cx="440" cy="301.53846153846155" fill="#FFFFFF" stroke="#8c564b"/><circle r="1" cx="440" cy="379.0769230769231" fill="#FFFFFF" stroke="#8c564b"/><circle r="1" cx="440" fill="#FFFFFF" stroke="#8c564b"/><circle r="1" cx="440" cy="473.84615384615387" fill="#FFFFFF" stroke="#8c564b"/><circle r="1" cx="440" cy="254.1538461538462" fill="#FFFFFF" stroke="#8c564b"/><circle r="1" cx="440" cy="150.7692307692308" fill="#FFFFFF" stroke="#8c564b"/><circle r="1" cx="440" cy="366.15384615384613" fill="#FFFFFF" stroke="#8c564b"/><circle r="1" cx="440" cy="21.538461538461526" fill="#FFFFFF" stroke="#8c564b"/><circle r="1" cx="440" cy="172.30769230769232" fill="#FFFFFF" stroke="#8c564b"/><circle r="1" cx="440" cy="267.07692307692304" fill="#FFFFFF" stroke="#8c564b"/><circle r="1" cx="440" fill="#FFFFFF" stroke="#8c564b"/></g><g><line x1="507" x2="507" y1="301.53846153846155" y2="534.1538461538461" stroke="#1f77b4" stroke-dasharray="4"/><line x1="497" x2="517" y1="301.53846153846155" y2="301.53846153846155" stroke="#1f77b4"/><line x1="497" x2="517" y1="534.1538461538461" y2="534.1538461538461" stroke="#1f77b4"/><rect x="497" y="351.0769230769231" width="20" height="79.69230769230762" fill="#1f77b4"/><line x1="497" y1="394.1538461538462" x2="517" y2="394.1538461538462" stroke="#FFFFFF"/><circle r="1" cx="507" fill="#FFFFFF" stroke="#1f77b4"/><circle r="1" cx="507" fill="#FFFFFF" stroke="#1f77b4"/><circle r="1" cx="507" fill="#FFFFFF" stroke="#1f77b4"/></g><g><line x1="574" x2="574" y1="689.2307692307693" y2="538.4615384615385" stroke="#bcbd22" stroke-dasharray="4"/><line x1="564" x2="584" y1="689.2307692307693" y2="689.2307692307693" stroke="#bcbd22"/><line x1="564" x2="584" y1="538.4615384615385" y2="538.4615384615385" stroke="#bcbd22"/><rect x="564" y="430.7692307692307" width="20" height="43.07692307692315" fill="#bcbd22"/><line x1="564" y1="467.38461538461536" x2="584" y2="467.38461538461536" stroke="#FFFFFF"/><circle r="1" cx="574" cy="473.84615384615387" fill="#FFFFFF" stroke="#bcbd22"/><circle r="1" cx="574" cy="417.84615384615387" fill="#FFFFFF" stroke="#bcbd22"/><circle r="1" cx="574" cy="473.84615384615387" fill="#FFFFFF" stroke="#bcbd22"/><circle r="1" cx="574" cy="473.84615384615387" fill="#FFFFFF" stroke="#bcbd22"/><circle r="1" cx="574" cy="560" fill="#FFFFFF" stroke="#bcbd22"/><circle r="1" cx="574" cy="469.53846153846155" fill="#FFFFFF" stroke="#bcbd22"/><circle r="1" cx="574" cy="374.76923076923083" fill="#FFFFFF" stroke="#bcbd22"/><circle r="1" cx="574" cy="387.6923076923077" fill="#FFFFFF" stroke="#bcbd22"/><circle r="1" cx="574" cy="443.6923076923077" fill="#FFFFFF" stroke="#bcbd22"/><circle r="1" cx="574" cy="473.84615384615387" fill="#FFFFFF" stroke="#bcbd22"/><circle r="1" cx="574" cy="426.46153846153845" fill="#FFFFFF" stroke="#bcbd22"/><circle r="1" cx="574" cy="430.7692307692307" fill="#FFFFFF" stroke="#bcbd22"/><circle r="1" cx="574" cy="430.7692307692307" fill="#FFFFFF" stroke="#bcbd22"/><circle r="1" cx="574" cy="473.84615384615387" fill="#FFFFFF" stroke="#bcbd22"/><circle r="1" cx="574" cy="430.7692307692307" fill="#FFFFFF" stroke="#bcbd22"/><circle r="1" cx="574" cy="452.3076923076923" fill="#FFFFFF" stroke="#bcbd22"/><circle r="1" cx="574" cy="456.6153846153846" fill="#FFFFFF" stroke="#bcbd22"/><circle r="1" cx="574" cy="443.6923076923077" fill="#FFFFFF" stroke="#bcbd22"/><circle r="1" cx="574" cy="516.9230769230769" fill="#FFFFFF" stroke="#bcbd22"/><circle r="1" cx="574" cy="504" fill="#FFFFFF" stroke="#bcbd22"/><circle r="1" cx="574" cy="473.84615384615387" fill="#FFFFFF" stroke="#bcbd22"/><circle r="1" cx="574" cy="516.9230769230769" fill="#FFFFFF" stroke="#bcbd22"/><circle r="1" cx="574" cy="473.84615384615387" fill="#FFFFFF" stroke="#bcbd22"/><circle r="1" cx="574" cy="413.53846153846155" fill="#FFFFFF" stroke="#bcbd22"/><circle r="1" cx="574" cy="465.23076923076917" fill="#FFFFFF" stroke="#bcbd22"/><circle r="1" cx="574" fill="#FFFFFF" stroke="#bcbd22"/><circle r="1" cx="574" cy="443.6923076923077" fill="#FFFFFF" stroke="#bcbd22"/><circle r="1" cx="574" cy="473.84615384615387" fill="#FFFFFF" stroke="#bcbd22"/><circle r="1" cx="574" cy="516.9230769230769" fill="#FFFFFF" stroke="#bcbd22"/></g><g><line x1="641" x2="641" y1="689.2307692307693" y2="344.61538461538464" stroke="#9467bd" stroke-dasharray="4"/><line x1="631" x2="651" y1="689.2307692307693" y2="689.2307692307693" stroke="#9467bd"/><line x1="631" x2="651" y1="344.61538461538464" y2="344.61538461538464" stroke="#9467bd"/><rect x="631" y="345.69230769230774" width="20" height="93.69230769230762" fill="#9467bd"/><line x1="631" y1="387.6923076923077" x2="651" y2="387.6923076923077" stroke="#FFFFFF"/><circle r="1" cx="641" cy="344.61538461538464" fill="#FFFFFF" stroke="#9467bd"/><circle r="1" cx="641" fill="#FFFFFF" stroke="#9467bd"/><circle r="1" cx="641" cy="348.9230769230769" fill="#FFFFFF" stroke="#9467bd"/><circle r="1" cx="641" cy="310.15384615384613" fill="#FFFFFF" stroke="#9467bd"/><circle r="1" cx="641" cy="245.53846153846155" fill="#FFFFFF" stroke="#9467bd"/><circle r="1" cx="641" cy="353.2307692307692" fill="#FFFFFF" stroke="#9467bd"/><circle r="1" cx="641" cy="357.5384615384615" fill="#FFFFFF" stroke="#9467bd"/><circle r="1" cx="641" fill="#FFFFFF" stroke="#9467bd"/><circle r="1" cx="641" cy="417.84615384615387" fill="#FFFFFF" stroke="#9467bd"/><circle r="1" cx="641" cy="387.6923076923077" fill="#FFFFFF" stroke="#9467bd"/><circle r="1" cx="641" cy="538.4615384615385" fill="#FFFFFF" stroke="#9467bd"/><circle r="1" cx="641" cy="439.38461538461536" fill="#FFFFFF" stroke="#9467bd"/><circle r="1" cx="641" cy="344.61538461538464" fill="#FFFFFF" stroke="#9467bd"/><circle r="1" cx="641" cy="560" fill="#FFFFFF" stroke="#9467bd"/><circle r="1" cx="641" cy="387.6923076923077" fill="#FFFFFF" stroke="#9467bd"/><circle r="1" cx="641" cy="430.7692307692307" fill="#FFFFFF" stroke="#9467bd"/><circle r="1" cx="641" cy="297.2307692307692" fill="#FFFFFF" stroke="#9467bd"/><circle r="1" cx="641" cy="439.38461538461536" fill="#FFFFFF" stroke="#9467bd"/><circle r="1" cx="641" cy="486.7692307692308" fill="#FFFFFF" stroke="#9467bd"/><circle r="1" cx="641" cy="560" fill="#FFFFFF" stroke="#9467bd"/></g><g><line x1="708" x2="708" y1="689.2307692307693" y2="486.7692307692308" stroke="#ff7f0e" stroke-dasharray="4"/><line x1="698" x2="718" y1="689.2307692307693" y2="689.2307692307693" stroke="#ff7f0e"/><line x1="698" x2="718" y1="486.7692307692308" y2="486.7692307692308" stroke="#ff7f0e"/><rect x="698" y="341.3846153846154" width="20" height="72.15384615384613" fill="#ff7f0e"/><line x1="698" y1="389.8461538461538" x2="718" y2="389.8461538461538" stroke="#FFFFFF"/><circle r="1" cx="708" cy="417.84615384615387" fill="#FFFFFF" stroke="#ff7f0e"/><circle r="1" cx="708" cy="344.61538461538464" fill="#FFFFFF" stroke="#ff7f0e"/><circle r="1" cx="708" cy="340.3076923076923" fill="#FFFFFF" stroke="#ff7f0e"/><circle r="1" cx="708" cy="392" fill="#FFFFFF" stroke="#ff7f0e"/><circle r="1" cx="708" cy="486.7692307692308" fill="#FFFFFF" stroke="#ff7f0e"/><circle r="1" cx="708" fill="#FFFFFF" stroke="#ff7f0e"/><circle r="1" cx="708" fill="#FFFFFF" stroke="#ff7f0e"/><circle r="1" cx="708" fill="#FFFFFF" stroke="#ff7f0e"/><circle r="1" cx="708" cy="198.15384615384613" fill="#FFFFFF" stroke="#ff7f0e"/><circle r="1" cx="708" cy="460.9230769230769" fill="#FFFFFF" stroke="#ff7f0e"/><circle r="1" cx="708" fill="#FFFFFF" stroke="#ff7f0e"/><circle r="1" cx="708" cy="236.92307692307696" fill="#FFFFFF" stroke="#ff7f0e"/><circle r="1" cx="708" fill="#FFFFFF" stroke="#ff7f0e"/><circle r="1" cx="708" cy="288.6153846153846" fill="#FFFFFF" stroke="#ff7f0e"/><circle r="1" cx="708" fill="#FFFFFF" stroke="#ff7f0e"/><circle r="1" cx="708" cy="387.6923076923077" fill="#FFFFFF" stroke="#ff7f0e"/><circle r="1" cx="708" cy="392" fill="#FFFFFF" stroke="#ff7f0e"/><circle r="1" cx="708" fill="#FFFFFF" stroke="#ff7f0e"/><circle r="1" cx="708" cy="400.61538461538464" fill="#FFFFFF" stroke="#ff7f0e"/><circle r="1" cx="708" cy="357.5384615384615" fill="#FFFFFF" stroke="#ff7f0e"/><circle r="1" cx="708" fill="#FFFFFF" stroke="#ff7f0e"/><circle r="1" cx="708" cy="443.6923076923077" fill="#FFFFFF" stroke="#ff7f0e"/><circle r="1" cx="708" fill="#FFFFFF" stroke="#ff7f0e"/></g></g><g id="boxplots"><g><text x="52" y="689.2307692307693" dominant-baseline="middle" style="font-family: Arial, sans-serif; font-size: 10px; fill: black; font-weight: normal;">0</text><text x="52" y="486.7692307692308" dominant-baseline="middle" style="font-family: Arial, sans-serif; font-size: 10px; fill: black; font-weight: normal;">4.7</text><text x="52" y="368.3076923076923" dominant-baseline="middle" style="font-family: Arial, sans-serif; font-size: 10px; fill: black; font-weight: normal;">7.45</text><text x="24" y="418.9230769230769" dominant-baseline="middle" text-anchor="end" style="font-family: Arial, sans-serif; font-size: 10px; fill: black; font-weight: normal;">6.275</text><text x="34" y="315.53846153846155" dominant-baseline="middle" text-anchor="end" style="font-family: Arial, sans-serif; font-size: 10px; fill: black; font-weight: normal;">8.675</text></g><g><text x="119" y="361.84615384615387" dominant-baseline="middle" style="font-family: Arial, sans-serif; font-size: 10px; fill: black; font-weight: normal;">7.6</text><text x="119" y="542.7692307692307" dominant-baseline="middle" style="font-family: Arial, sans-serif; font-size: 10px; fill: black; font-weight: normal;">3.4</text><text x="119" y="430.7692307692307" dominant-baseline="middle" style="font-family: Arial, sans-serif; font-size: 10px; fill: black; font-weight: normal;">6</text><text x="91" y="458.7692307692308" dominant-baseline="middle" text-anchor="end" style="font-family: Arial, sans-serif; font-size: 10px; fill: black; font-weight: normal;">5.35</text><text x="101" y="387.6923076923077" dominant-baseline="middle" text-anchor="end" style="font-family: Arial, sans-serif; font-size: 10px; fill: black; font-weight: normal;">7</text></g><g><text x="186" y="277.3076923076923" dominant-baseline="middle" style="font-family: Arial, sans-serif; font-size: 10px; fill: black; font-weight: normal;">9.5625</text><text x="186" y="560" dominant-baseline="middle" style="font-family: Arial, sans-serif; font-size: 10px; fill: black; font-weight: normal;">3</text><text x="186" y="484.61538461538464" dominant-baseline="middle" style="font-family: Arial, sans-serif; font-size: 10px; fill: black; font-weight: normal;">4.75</text><text x="158" y="516.9230769230769" dominant-baseline="middle" text-anchor="end" style="font-family: Arial, sans-serif; font-size: 10px; fill: black; font-weight: normal;">4</text><text x="168" y="421.0769230769231" dominant-baseline="middle" text-anchor="end" style="font-family: Arial, sans-serif; font-size: 10px; fill: black; font-weight: normal;">6.225</text></g><g><text x="253" y="689.2307692307693" dominant-baseline="middle" style="font-family: Arial, sans-serif; font-size: 10px; fill: black; font-weight: normal;">0</text><text x="253" y="516.9230769230769" dominant-baseline="middle" style="font-family: Arial, sans-serif; font-size: 10px; fill: black; font-weight: normal;">4</text><text x="253" y="443.6923076923077" dominant-baseline="middle" style="font-family: Arial, sans-serif; font-size: 10px; fill: black; font-weight: normal;">5.7</text><text x="225" y="473.84615384615387" dominant-baseline="middle" text-anchor="end" style="font-family: Arial, sans-serif; font-size: 10px; fill: black; font-weight: normal;">5</text><text x="235" y="420" dominant-baseline="middle" text-anchor="end" style="font-family: Arial, sans-serif; font-size: 10px; fill: black; font-weight: normal;">6.25</text></g><g><text x="320" y="327.3846153846155" dominant-baseline="middle" style="font-family: Arial, sans-serif; font-size: 10px; fill: black; font-weight: normal;">8.399999999999999</text><text x="320" y="560" dominant-baseline="middle" style="font-family: Arial, sans-serif; font-size: 10px; fill: black; font-weight: normal;">3</text><text x="320" y="452.3076923076923" dominant-baseline="middle" style="font-family: Arial, sans-serif; font-size: 10px; fill: black; font-weight: normal;">5.5</text><text x="292" y="478.15384615384613" dominant-baseline="middle" text-anchor="end" style="font-family: Arial, sans-serif; font-size: 10px; fill: black; font-weight: normal;">4.9</text><text x="302" y="417.84615384615387" dominant-baseline="middle" text-anchor="end" style="font-family: Arial, sans-serif; font-size: 10px; fill: black; font-weight: normal;">6.3</text></g><g><text x="387" y="374.76923076923083" dominant-baseline="middle" style="font-family: Arial, sans-serif; font-size: 10px; fill: black; font-weight: normal;">7.3</text><text x="387" y="508.3076923076923" dominant-baseline="middle" style="font-family: Arial, sans-serif; font-size: 10px; fill: black; font-weight: normal;">4.2</text><text x="387" y="439.38461538461536" dominant-baseline="middle" style="font-family: Arial, sans-serif; font-size: 10px; fill: black; font-weight: normal;">5.8</text><text x="359" y="473.84615384615387" dominant-baseline="middle" text-anchor="end" style="font-family: Arial, sans-serif; font-size: 10px; fill: black; font-weight: normal;">5</text><text x="369" y="420" dominant-baseline="middle" text-anchor="end" style="font-family: Arial, sans-serif; font-size: 10px; fill: black; font-weight: normal;">6.25</text></g><g><text x="454" y="689.2307692307693" dominant-baseline="middle" style="font-family: Arial, sans-serif; font-size: 10px; fill: black; font-weight: normal;">0</text><text x="454" y="422.15384615384613" dominant-baseline="middle" style="font-family: Arial, sans-serif; font-size: 10px; fill: black; font-weight: normal;">6.2</text><text x="454" y="258.46153846153845" dominant-baseline="middle" style="font-family: Arial, sans-serif; font-size: 10px; fill: black; font-weight: normal;">10</text><text x="426" y="324.1538461538462" dominant-baseline="middle" text-anchor="end" style="font-family: Arial, sans-serif; font-size: 10px; fill: black; font-weight: normal;">8.475</text><text x="436" y="204.61538461538464" dominant-baseline="middle" text-anchor="end" style="font-family: Arial, sans-serif; font-size: 10px; fill: black; font-weight: normal;">11.25</text></g><g><text x="521" y="301.53846153846155" dominant-baseline="middle" style="font-family: Arial, sans-serif; font-size: 10px; fill: black; font-weight: normal;">9</text><text x="521" y="534.1538461538461" dominant-baseline="middle" style="font-family: Arial, sans-serif; font-size: 10px; fill: black; font-weight: normal;">3.6</text><text x="521" y="394.1538461538462" dominant-baseline="middle" style="font-family: Arial, sans-serif; font-size: 10px; fill: black; font-weight: normal;">6.85</text><text x="493" y="430.7692307692307" dominant-baseline="middle" text-anchor="end" style="font-family: Arial, sans-serif; font-size: 10px; fill: black; font-weight: normal;">6</text><text x="503" y="351.0769230769231" dominant-baseline="middle" text-anchor="end" style="font-family: Arial, sans-serif; font-size: 10px; fill: black; font-weight: normal;">7.85</text></g><g><text x="588" y="689.2307692307693" dominant-baseline="middle" style="font-family: Arial, sans-serif; font-size: 10px; fill: black; font-weight: normal;">0</text><text x="588" y="538.4615384615385" dominant-baseline="middle" style="font-family: Arial, sans-serif; font-size: 10px; fill: black; font-weight: normal;">3.5</text><text x="588" y="467.38461538461536" dominant-baseline="middle" style="font-family: Arial, sans-serif; font-size: 10px; fill: black; font-weight: normal;">5.15</text><text x="560" y="473.84615384615387" dominant-baseline="middle" text-anchor="end" style="font-family: Arial, sans-serif; font-size: 10px; fill: black; font-weight: normal;">5</text><text x="570" y="430.7692307692307" dominant-baseline="middle" text-anchor="end" style="font-family: Arial, sans-serif; font-size: 10px; fill: black; font-weight: normal;">6</text></g><g><text x="655" y="689.2307692307693" dominant-baseline="middle" style="font-family: Arial, sans-serif; font-size: 10px; fill: black; font-weight: normal;">0</text><text x="655" y="344.61538461538464" dominant-baseline="middle" style="font-family: Arial, sans-serif; font-size: 10px; fill: black; font-weight: normal;">8</text><text x="655" y="387.6923076923077" dominant-baseline="middle" style="font-family: Arial, sans-serif; font-size: 10px; fill: black; font-weight: normal;">7</text><text x="627" y="439.38461538461536" dominant-baseline="middle" text-anchor="end" style="font-family: Arial, sans-serif; font-size: 10px; fill: black; font-weight: normal;">5.8</text><text x="637" y="345.69230769230774" dominant-baseline="middle" text-anchor="end" style="font-family: Arial, sans-serif; font-size: 10px; fill: black; font-weight: normal;">7.975</text></g><g><text x="722" y="689.2307692307693" dominant-baseline="middle" style="font-family: Arial, sans-serif; font-size: 10px; fill: black; font-weight: normal;">0</text><text x="722" y="486.7692307692308" dominant-baseline="middle" style="font-family: Arial, sans-serif; font-size: 10px; fill: black; font-weight: normal;">4.7</text><text x="722" y="389.8461538461538" dominant-baseline="middle" style="font-family: Arial, sans-serif; font-size: 10px; fill: black; font-weight: normal;">6.95</text><text x="694" y="413.53846153846155" dominant-baseline="middle" text-anchor="end" style="font-family: Arial, sans-serif; font-size: 10px; fill: black; font-weight: normal;">6.4</text><text x="704" y="341.3846153846154" dominant-baseline="middle" text-anchor="end" style="font-family: Arial, sans-serif; font-size: 10px; fill: black; font-weight: normal;">8.075</text></g></g></g></svg>