<svg xmlns="http://www.w3.org/2000/svg" width="805" height="600"><rect width="805" height="600" x="0" y="0" fill="#FFFFFF" id="background"/><g transform="translate(50,10)" id="viz"><g id="y axis" fill="none" font-size="10" font-family="sans-serif" text-anchor="end"><path class="domain" stroke="currentColor" d="M-6,560.5H0.5V0.5H-6"/><g class="tick" opacity="1" transform="translate(0,560.5)"><line stroke="currentColor" x2="-6"/><text fill="currentColor" x="-9" dy="0.32em">0</text></g><g class="tick" opacity="1" transform="translate(0,509.59090909090907)"><line stroke="currentColor" x2="-6"/><text fill="currentColor" x="-9" dy="0.32em">2</text></g><g class="tick" opacity="1" transform="translate(0,458.68181818181813)"><line stroke="currentColor" x2="-6"/><text fill="currentColor" x="-9" dy="0.32em">4</text></g><g class="tick" opacity="1" transform="translate(0,407.7727272727273)"><line stroke="currentColor" x2="-6"/><text fill="currentColor" x="-9" dy="0.32em">6</text></g><g class="tick" opacity="1" transform="translate(0,356.8636363636364)"><line stroke="currentColor" x2="-6"/><text fill="currentColor" x="-9" dy="0.32em">8</text></g><g class="tick" opacity="1" transform="translate(0,305.95454545454544)"><line stroke="currentColor" x2="-6"/><text fill="currentColor" x="-9" dy="0.32em">10</text></g><g class="tick" opacity="1" transform="translate(0,255.04545454545456)"><line stroke="currentColor" x2="-6"/><text fill="currentColor" x="-9" dy="0.32em">12</text></g><g class="tick" opacity="1" transform="translate(0,204.13636363636365)"><line stroke="currentColor" x2="-6"/><text fill="currentColor" x="-9" dy="0.32em">14</text></g><g class="tick" opacity="1" transform="translate(0,153.22727272727272)"><line stroke="currentColor" x2="-6"/><text fill="currentColor" x="-9" dy="0.32em">16</text></g><g class="tick" opacity="1" transform="translate(0,102.31818181818178)"><line stroke="currentColor" x2="-6"/><text fill="currentColor" x="-9" dy="0.32em">18</text></g><g class="tick" opacity="1" transform="translate(0,51.40909090909093)"><line stroke="currentColor" x2="-6"/><text fill="currentColor" x="-9" dy="0.32em">20</text></g><g class="tick" opacity="1" transform="translate(0,0.5)"><line stroke="currentColor" x2="-6"/><text fill="currentColor" x="-9" dy="0.32em">22</text></g><text x="4" text-anchor="start" dominant-baseline="hanging" style="font-family: Arial, sans-serif; font-size: 12px; fill: rgb(123, 123, 123); font-weight: bold;">social_score</text></g><g id="x axis" transform="translate(0,560)" fill="none" font-size="10" font-family="sans-serif" text-anchor="middle"><path class="domain" stroke="currentColor" d="M0.5,6V0.5H745.5V6"/><g class="tick" opacity="1" transform="translate(38.5,0)"><line stroke="currentColor" y2="6"/><text fill="currentColor" y="9" dy="0.71em">Healthcare</text></g><g class="tick" opacity="1" transform="translate(105.5,0)"><line stroke="currentColor" y2="6"/><text fill="currentColor" y="9" dy="0.71em">Industrials</text></g><g class="tick" opacity="1" transform="translate(172.5,0)"><line stroke="currentColor" y2="6"/><text fill="currentColor" y="9" dy="0.71em">Consumer Cyclical</text></g><g class="tick" opacity="1" transform="translate(239.5,0)"><line stroke="currentColor" y2="6"/><text fill="currentColor" y="9" dy="0.71em">Technology</text></g><g class="tick" opacity="1" transform="translate(306.5,0)"><line stroke="currentColor" y2="6"/><text fill="currentColor" y="9" dy="0.71em">Consumer Defensive</text></g><g class="tick" opacity="1" transform="translate(373.5,0)"><line stroke="currentColor" y2="6"/><text fill="currentColor" y="9" dy="0.71em">Utilities</text></g><g class="tick" opacity="1" transform="translate(440.5,0)"><line stroke="currentColor" y2="6"/><text fill="currentColor" y="9" dy="0.71em">Financial Services</text></g><g class="tick" opacity="1" transform="translate(507.5,0)"><line stroke="currentColor" y2="6"/><text fill="currentColor" y="9" dy="0.71em">Basic Materials</text></g><g class="tick" opacity="1" transform="translate(574.5,0)"><line stroke="currentColor" y2="6"/><text fill="currentColor" y="9" dy="0.71em">Real Estate</text></g><g class="tick" opacity="1" transform="translate(641.5,0)"><line stroke="currentColor" y2="6"/><text fill="currentColor" y="9" dy="0.71em">Energy</text></g><g class="tick" opacity="1" transform="translate(708.5,0)"><line stroke="currentColor" y2="6"/><text fill="currentColor" y="9" dy="0.71em">Communication Services</text></g></g><g id="boxplots"><g><line x1="38" x2="38" y1="560" y2="458.18181818181813" stroke="#e377c2" stroke-dasharray="4"/><line x1="28" x2="48" y1="560" y2="560" stroke="#e377c2"/><line x1="28" x2="48" y1="458.18181818181813" y2="458.18181818181813" stroke="#e377c2"/><rect x="28" y="197.9090909090909" width="20" height="146.36363636363635" fill="#e377c2"/><line x1="28" y1="246.9090909090909" x2="48" y2="246.9090909090909" stroke="#FFFFFF"/><circle r="1" cx="38" cy="341.0909090909091" fill="#FFFFFF" stroke="#e377c2"/><circle r="1" cx="38" cy="132.36363636363635" fill="#FFFFFF" stroke="#e377c2"/><circle r="1" cx="38" cy="417.4545454545455" fill="#FFFFFF" stroke="#e377c2"/><circle r="1" cx="38" cy="213.8181818181818" fill="#FFFFFF" stroke="#e377c2"/><circle r="1" cx="38" fill="#FFFFFF" stroke="#e377c2"/><circle r="1" cx="38" cy="216.36363636363635" fill="#FFFFFF" stroke="#e377c2"/><circle r="1" cx="38" cy="213.8181818181818" fill="#FFFFFF" stroke="#e377c2"/><circle r="1" cx="38" cy="162.9090909090909" fill="#FFFFFF" stroke="#e377c2"/><circle r="1" cx="38" cy="224" fill="#FFFFFF" stroke="#e377c2"/><circle r="1" cx="38" cy="356.3636363636364" fill="#FFFFFF" stroke="#e377c2"/><circle r="1" cx="38" cy="180.72727272727275" fill="#FFFFFF" stroke="#e377c2"/><circle r="1" cx="38" cy="236.72727272727272" fill="#FFFFFF" stroke="#e377c2"/><circle r="1" cx="38" cy="407.2727272727273" fill="#FFFFFF" stroke="#e377c2"/><circle r="1" cx="38" cy="407.2727272727273" fill="#FFFFFF" stroke="#e377c2"/><circle r="1" cx="38" cy="221.4545454545454" fill="#FFFFFF" stroke="#e377c2"/><circle r="1" cx="38" cy="285.09090909090907" fill="#FFFFFF" stroke="#e377c2"/><circle r="1" cx="38" fill="#FFFFFF" stroke="#e377c2"/><circle r="1" cx="38" fill="#FFFFFF" stroke="#e377c2"/><circle r="1" cx="38" cy="142.5454545454546" fill="#FFFFFF" stroke="#e377c2"/><circle r="1" cx="38" cy="236.72727272727272" fill="#FFFFFF" stroke="#e377c2"/><circle r="1" cx="38" cy="427.6363636363636" fill="#FFFFFF" stroke="#e377c2"/><circle r="1" cx="38" cy="203.63636363636365" fill="#FFFFFF" stroke="#e377c2"/><circle r="1" cx="38" cy="305.45454545454544" fill="#FFFFFF" stroke="#e377c2"/><circle r="1" cx="38" cy="333.45454545454544" fill="#FFFFFF" stroke="#e377c2"/><circle r="1" cx="38" cy="203.63636363636365" fill="#FFFFFF" stroke="#e377c2"/><circle r="1" cx="38" cy="119.63636363636363" fill="#FFFFFF" stroke="#e377c2"/><circle r="1" cx="38" cy="221.4545454545454" fill="#FFFFFF" stroke="#e377c2"/><circle r="1" cx="38" cy="407.2727272727273" fill="#FFFFFF" stroke="#e377c2"/><circle r="1" cx="38" cy="142.5454545454546" fill="#FFFFFF" stroke="#e377c2"/><circle r="1" cx="38" cy="381.81818181818187" fill="#FFFFFF" stroke="#e377c2"/><circle r="1" cx="38" cy="458.18181818181813" fill="#FFFFFF" stroke="#e377c2"/><circle r="1" cx="38" cy="162.9090909090909" fill="#FFFFFF" stroke="#e377c2"/><circle r="1" cx="38" cy="290.1818181818182" fill="#FFFFFF" stroke="#e377c2"/><circle r="1" cx="38" cy="310.5454545454545" fill="#FFFFFF" stroke="#e377c2"/><circle r="1" cx="38" cy="157.81818181818178" fill="#FFFFFF" stroke="#e377c2"/><circle r="1" cx="38" cy="264.72727272727275" fill="#FFFFFF" stroke="#e377c2"/><circle r="1" cx="38" cy="117.0909090909091" fill="#FFFFFF" stroke="#e377c2"/><circle r="1" cx="38" cy="371.6363636363636" fill="#FFFFFF" stroke="#e377c2"/><circle r="1" cx="38" cy="239.27272727272725" fill="#FFFFFF" stroke="#e377c2"/><circle r="1" cx="38" fill="#FFFFFF" stroke="#e377c2"/><circle r="1" cx="38" cy="267.2727272727273" fill="#FFFFFF" stroke="#e377c2"/><circle r="1" cx="38" fill="#FFFFFF" stroke="#e377c2"/><circle r="1" cx="38" cy="381.81818181818187" fill="#FFFFFF" stroke="#e377c2"/><circle r="1" cx="38" fill="#FFFFFF" stroke="#e377c2"/><circle r="1" cx="38" cy="231.6363636363636" fill="#FFFFFF" stroke="#e377c2"/><circle r="1" cx="38" cy="285.09090909090907" fill="#FFFFFF" stroke="#e377c2"/><circle r="1" cx="38" cy="254.54545454545456" fill="#FFFFFF" stroke="#e377c2"/><circle r="1" cx="38" fill="#FFFFFF" stroke="#e377c2"/><circle r="1" cx="38" cy="203.63636363636365" fill="#FFFFFF" stroke="#e377c2"/><circle r="1" cx="38" fill="#FFFFFF" stroke="#e377c2"/><circle r="1" cx="38" cy="152.72727272727272" fill="#FFFFFF" stroke="#e377c2"/><circle r="1" cx="38" cy="417.4545454545455" fill="#FFFFFF" stroke="#e377c2"/><circle r="1" cx="38" cy="25.454545454545432" fill="#FFFFFF" stroke="#e377c2"/><circle r="1" cx="38" cy="264.72727272727275" fill="#FFFFFF" stroke="#e377c2"/><circle r="1" cx="38" cy="167.99999999999997" fill="#FFFFFF" stroke="#e377c2"/><circle r="1" cx="38" fill="#FFFFFF" stroke="#e377c2"/><circle r="1" cx="38" cy="320.72727272727275" fill="#FFFFFF" stroke="#e377c2"/><circle r="1" cx="38" cy="267.2727272727273" fill="#FFFFFF" stroke="#e377c2"/><circle r="1" cx="38" fill="#FFFFFF" stroke="#e377c2"/><circle r="1" cx="38" cy="381.81818181818187" fill="#FFFFFF" stroke="#e377c2"/><circle r="1" cx="38" cy="178.18181818181822" fill="#FFFFFF" stroke="#e377c2"/><circle r="1" cx="38" cy="353.8181818181818" fill="#FFFFFF" stroke="#e377c2"/></g><g><line x1="105" x2="105" y1="101.81818181818178" y2="432.7272727272727" stroke="#7f7f7f" stroke-dasharray="4"/><line x1="95" x2="115" y1="101.81818181818178" y2="101.81818181818178" stroke="#7f7f7f"/><line x1="95" x2="115" y1="432.7272727272727" y2="432.7272727272727" stroke="#7f7f7f"/><rect x="95" y="222.72727272727272" width="20" height="155.27272727272728" fill="#7f7f7f"/><line x1="95" y1="280" x2="115" y2="280" stroke="#FFFFFF"/><circle r="1" cx="105" fill="#FFFFFF" stroke="#7f7f7f"/><circle r="1" cx="105" cy="58.54545454545458" fill="#FFFFFF" stroke="#7f7f7f"/><circle r="1" cx="105" fill="#FFFFFF" stroke="#7f7f7f"/><circle r="1" cx="105" cy="89.09090909090908" fill="#FFFFFF" stroke="#7f7f7f"/><circle r="1" cx="105" cy="76.36363636363636" fill="#FFFFFF" stroke="#7f7f7f"/><circle r="1" cx="105" cy="63.63636363636364" fill="#FFFFFF" stroke="#7f7f7f"/><circle r="1" cx="105" fill="#FFFFFF" stroke="#7f7f7f"/><circle r="1" cx="105" fill="#FFFFFF" stroke="#7f7f7f"/><circle r="1" cx="105" fill="#FFFFFF" stroke="#7f7f7f"/><circle r="1" cx="105" fill="#FFFFFF" stroke="#7f7f7f"/><circle r="1" cx="105" cy="442.9090909090909" fill="#FFFFFF" stroke="#7f7f7f"/><circle r="1" cx="105" fill="#FFFFFF" stroke="#7f7f7f"/><circle r="1" cx="105" fill="#FFFFFF" stroke="#7f7f7f"/><circle r="1" cx="105" fill="#FFFFFF" stroke="#7f7f7f"/><circle r="1" cx="105" fill="#FFFFFF" stroke="#7f7f7f"/><circle r="1" cx="105" fill="#FFFFFF" stroke="#7f7f7f"/><circle r="1" cx="105" cy="463.27272727272725" fill="#FFFFFF" stroke="#7f7f7f"/></g><g><line x1="172" x2="172" y1="560" y2="356.3636363636364" stroke="#2ca02c" stroke-dasharray="4"/><line x1="162" x2="182" y1="560" y2="560" stroke="#2ca02c"/><line x1="162" x2="182" y1="356.3636363636364" y2="356.3636363636364" stroke="#2ca02c"/><rect x="162" y="274.27272727272725" width="20" height="113.27272727272725" fill="#2ca02c"/><line x1="162" y1="361.4545454545455" x2="182" y2="361.4545454545455" stroke="#FFFFFF"/><circle r="1" cx="172" cy="356.3636363636364" fill="#FFFFFF" stroke="#2ca02c"/><circle r="1" cx="172" fill="#FFFFFF" stroke="#2ca02c"/><circle r="1" cx="172" cy="183.27272727272728" fill="#FFFFFF" stroke="#2ca02c"/><circle r="1" cx="172" cy="458.18181818181813" fill="#FFFFFF" stroke="#2ca02c"/><circle r="1" cx="172" cy="532" fill="#FFFFFF" stroke="#2ca02c"/><circle r="1" cx="172" cy="379.27272727272725" fill="#FFFFFF" stroke="#2ca02c"/><circle r="1" cx="172" cy="532" fill="#FFFFFF" stroke="#2ca02c"/><circle r="1" cx="172" cy="356.3636363636364" fill="#FFFFFF" stroke="#2ca02c"/><circle r="1" cx="172" cy="376.72727272727275" fill="#FFFFFF" stroke="#2ca02c"/><circle r="1" cx="172" cy="241.81818181818178" fill="#FFFFFF" stroke="#2ca02c"/><circle r="1" cx="172" cy="458.18181818181813" fill="#FFFFFF" stroke="#2ca02c"/><circle r="1" cx="172" cy="308" fill="#FFFFFF" stroke="#2ca02c"/><circle r="1" cx="172" cy="218.90909090909088" fill="#FFFFFF" stroke="#2ca02c"/><circle r="1" cx="172" fill="#FFFFFF" stroke="#2ca02c"/><circle r="1" cx="172" cy="389.45454545454544" fill="#FFFFFF" stroke="#2ca02c"/><circle r="1" cx="172" cy="134.90909090909093" fill="#FFFFFF" stroke="#2ca02c"/><circle r="1" cx="172" cy="178.18181818181822" fill="#FFFFFF" stroke="#2ca02c"/><circle r="1" cx="172" cy="330.9090909090909" fill="#FFFFFF" stroke="#2ca02c"/><circle r="1" cx="172" fill="#FFFFFF" stroke="#2ca02c"/><circle r="1" cx="172" cy="208.7272727272727" fill="#FFFFFF" stroke="#2ca02c"/><circle r="1" cx="172" cy="272.3636363636364" fill="#FFFFFF" stroke="#2ca02c"/><circle r="1" cx="172" cy="231.6363636363636" fill="#FFFFFF" stroke="#2ca02c"/><circle r="1" cx="172" cy="432.7272727272727" fill="#FFFFFF" stroke="#2ca02c"/><circle r="1" cx="172" cy="483.6363636363636" fill="#FFFFFF" stroke="#2ca02c"/><circle r="1" cx="172" cy="420" fill="#FFFFFF" stroke="#2ca02c"/><circle r="1" cx="172" cy="381.81818181818187" fill="#FFFFFF" stroke="#2ca02c"/><circle r="1" cx="172" cy="445.45454545454544" fill="#FFFFFF" stroke="#2ca02c"/><circle r="1" cx="172" cy="356.3636363636364" fill="#FFFFFF" stroke="#2ca02c"/><circle r="1" cx="172" cy="336" fill="#FFFFFF" stroke="#2ca02c"/><circle r="1" cx="172" cy="458.18181818181813" fill="#FFFFFF" stroke="#2ca02c"/><circle r="1" cx="172" cy="442.9090909090909" fill="#FFFFFF" stroke="#2ca02c"/><circle r="1" cx="172" cy="361.4545454545455" fill="#FFFFFF" stroke="#2ca02c"/><circle r="1" cx="172" cy="328.3636363636364" fill="#FFFFFF" stroke="#2ca02c"/><circle r="1" cx="172" cy="196" fill="#FFFFFF" stroke="#2ca02c"/><circle r="1" cx="172" cy="229.09090909090907" fill="#FFFFFF" stroke="#2ca02c"/><circle r="1" cx="172" cy="458.18181818181813" fill="#FFFFFF" stroke="#2ca02c"/><circle r="1" cx="172" cy="305.45454545454544" fill="#FFFFFF" stroke="#2ca02c"/><circle r="1" cx="172" cy="381.81818181818187" fill="#FFFFFF" stroke="#2ca02c"/><circle r="1" cx="172" cy="361.4545454545455" fill="#FFFFFF" stroke="#2ca02c"/><circle r="1" cx="172" cy="333.45454545454544" fill="#FFFFFF" stroke="#2ca02c"/><circle r="1" cx="172" cy="374.1818181818182" fill="#FFFFFF" stroke="#2ca02c"/><circle r="1" cx="172" cy="524.3636363636364" fill="#FFFFFF" stroke="#2ca02c"/><circle r="1" cx="172" cy="356.3636363636364" fill="#FFFFFF" stroke="#2ca02c"/><circle r="1" cx="172" cy="381.81818181818187" fill="#FFFFFF" stroke="#2ca02c"/><circle r="1" cx="172" cy="280" fill="#FFFFFF" stroke="#2ca02c"/><circle r="1" cx="172" cy="346.1818181818182" fill="#FFFFFF" stroke="#2ca02c"/><circle r="1" cx="172" cy="190.90909090909093" fill="#FFFFFF" stroke="#2ca02c"/><circle r="1" cx="172" cy="509.09090909090907" fill="#FFFFFF" stroke="#2ca02c"/><circle r="1" cx="172" cy="371.6363636363636" fill="#FFFFFF" stroke="#2ca02c"/><circle r="1" cx="172" cy="381.81818181818187" fill="#FFFFFF" stroke="#2ca02c"/><circle r="1" cx="172" cy="381.81818181818187" fill="#FFFFFF" stroke="#2ca02c"/><circle r="1" cx="172" cy="147.63636363636365" fill="#FFFFFF" stroke="#2ca02c"/><circle r="1" cx="172" cy="381.81818181818187" fill="#FFFFFF" stroke="#2ca02c"/><circle r="1" cx="172" cy="381.81818181818187" fill="#FFFFFF" stroke="#2ca02c"/><circle r="1" cx="172" cy="381.81818181818187" fill="#FFFFFF" stroke="#2ca02c"/><circle r="1" cx="172" fill="#FFFFFF" stroke="#2ca02c"/><circle r="1" cx="172" cy="254.54545454545456" fill="#FFFFFF" stroke="#2ca02c"/><circle r="1" cx="172" cy="264.72727272727275" fill="#FFFFFF" stroke="#2ca02c"/></g><g><line x1="239" x2="239" y1="560" y2="493.8181818181818" stroke="#17becf" stroke-dasharray="4"/><line x1="229" x2="249" y1="560" y2="560" stroke="#17becf"/><line x1="229" x2="249" y1="493.8181818181818" y2="493.8181818181818" stroke="#17becf"/><rect x="229" y="332.18181818181824" width="20" height="100.54545454545445" fill="#17becf"/><line x1="229" y1="384.3636363636363" x2="249" y2="384.3636363636363" stroke="#FFFFFF"/><circle r="1" cx="239" cy="384.3636363636363" fill="#FFFFFF" stroke="#17becf"/><circle r="1" cx="239" cy="442.9090909090909" fill="#FFFFFF" stroke="#17becf"/><circle r="1" cx="239" cy="409.8181818181818" fill="#FFFFFF" stroke="#17becf"/><circle r="1" cx="239" cy="363.99999999999994" fill="#FFFFFF" stroke="#17becf"/><circle r="1" cx="239" cy="356.3636363636364" fill="#FFFFFF" stroke="#17becf"/><circle r="1" cx="239" cy="384.3636363636363" fill="#FFFFFF" stroke="#17becf"/><circle r="1" cx="239" cy="493.8181818181818" fill="#FFFFFF" stroke="#17becf"/><circle r="1" cx="239" fill="#FFFFFF" stroke="#17becf"/><circle r="1" cx="239" cy="330.9090909090909" fill="#FFFFFF" stroke="#17becf"/><circle r="1" cx="239" cy="381.81818181818187" fill="#FFFFFF" stroke="#17becf"/><circle r="1" cx="239" cy="420" fill="#FFFFFF" stroke="#17becf"/><circle r="1" cx="239" cy="384.3636363636363" fill="#FFFFFF" stroke="#17becf"/><circle r="1" cx="239" cy="330.9090909090909" fill="#FFFFFF" stroke="#17becf"/><circle r="1" cx="239" fill="#FFFFFF" stroke="#17becf"/><circle r="1" cx="239" cy="404.7272727272727" fill="#FFFFFF" stroke="#17becf"/><circle r="1" cx="239" cy="483.6363636363636" fill="#FFFFFF" stroke="#17becf"/><circle r="1" cx="239" cy="397.090909090909" fill="#FFFFFF" stroke="#17becf"/><circle r="1" cx="239" cy="417.4545454545455" fill="#FFFFFF" stroke="#17becf"/><circle r="1" cx="239" cy="366.54545454545456" fill="#FFFFFF" stroke="#17becf"/><circle r="1" cx="239" cy="305.45454545454544" fill="#FFFFFF" stroke="#17becf"/><circle r="1" cx="239" fill="#FFFFFF" stroke="#17becf"/><circle r="1" cx="239" fill="#FFFFFF" stroke="#17becf"/><circle r="1" cx="239" cy="254.54545454545456" fill="#FFFFFF" stroke="#17becf"/><circle r="1" cx="239" cy="277.4545454545455" fill="#FFFFFF" stroke="#17becf"/><circle r="1" cx="239" cy="328.3636363636364" fill="#FFFFFF" stroke="#17becf"/><circle r="1" cx="239" cy="249.45454545454544" fill="#FFFFFF" stroke="#17becf"/><circle r="1" cx="239" cy="203.63636363636365" fill="#FFFFFF" stroke="#17becf"/><circle r="1" cx="239" cy="432.7272727272727" fill="#FFFFFF" stroke="#17becf"/><circle r="1" cx="239" cy="358.9090909090909" fill="#FFFFFF" stroke="#17becf"/><circle r="1" cx="239" cy="432.7272727272727" fill="#FFFFFF" stroke="#17becf"/><circle r="1" cx="239" cy="432.7272727272727" fill="#FFFFFF" stroke="#17becf"/><circle r="1" cx="239" cy="389.45454545454544" fill="#FFFFFF" stroke="#17becf"/><circle r="1" cx="239" cy="409.8181818181818" fill="#FFFFFF" stroke="#17becf"/><circle r="1" cx="239" cy="292.7272727272727" fill="#FFFFFF" stroke="#17becf"/><circle r="1" cx="239" cy="178.18181818181822" fill="#FFFFFF" stroke="#17becf"/><circle r="1" cx="239" cy="320.72727272727275" fill="#FFFFFF" stroke="#17becf"/><circle r="1" cx="239" cy="330.9090909090909" fill="#FFFFFF" stroke="#17becf"/><circle r="1" cx="239" cy="509.09090909090907" fill="#FFFFFF" stroke="#17becf"/><circle r="1" cx="239" cy="437.8181818181818" fill="#FFFFFF" stroke="#17becf"/><circle r="1" cx="239" cy="432.7272727272727" fill="#FFFFFF" stroke="#17becf"/><circle r="1" cx="239" cy="458.18181818181813" fill="#FFFFFF" stroke="#17becf"/><circle r="1" cx="239" cy="330.9090909090909" fill="#FFFFFF" stroke="#17becf"/><circle r="1" cx="239" fill="#FFFFFF" stroke="#17becf"/><circle r="1" cx="239" cy="346.1818181818182" fill="#FFFFFF" stroke="#17becf"/><circle r="1" cx="239" cy="389.45454545454544" fill="#FFFFFF" stroke="#17becf"/><circle r="1" cx="239" cy="430.1818181818182" fill="#FFFFFF" stroke="#17becf"/><circle r="1" cx="239" cy="346.1818181818182" fill="#FFFFFF" stroke="#17becf"/><circle r="1" cx="239" cy="384.3636363636363" fill="#FFFFFF" stroke="#17becf"/><circle r="1" cx="239" cy="427.6363636363636" fill="#FFFFFF" stroke="#17becf"/><circle r="1" cx="239" cy="371.6363636363636" fill="#FFFFFF" stroke="#17becf"/><circle r="1" cx="239" cy="363.99999999999994" fill="#FFFFFF" stroke="#17becf"/><circle r="1" cx="239" fill="#FFFFFF" stroke="#17becf"/><circle r="1" cx="239" cy="341.0909090909091" fill="#FFFFFF" stroke="#17becf"/><circle r="1" cx="239" cy="455.6363636363637" fill="#FFFFFF" stroke="#17becf"/><circle r="1" cx="239" cy="356.3636363636364" fill="#FFFFFF" stroke="#17becf"/><circle r="1" cx="239" cy="236.72727272727272" fill="#FFFFFF" stroke="#17becf"/><circle r="1" cx="239" fill="#FFFFFF" stroke="#17becf"/><circle r="1" cx="239" cy="402.18181818181824" fill="#FFFFFF" stroke="#17becf"/><circle r="1" cx="239" cy="463.27272727272725" fill="#FFFFFF" stroke="#17becf"/><circle r="1" cx="239" cy="333.45454545454544" fill="#FFFFFF" stroke="#17becf"/><circle r="1" cx="239" fill="#FFFFFF" stroke="#17becf"/><circle r="1" cx="239" cy="432.7272727272727" fill="#FFFFFF" stroke="#17becf"/><circle r="1" cx="239" cy="435.27272727272725" fill="#FFFFFF" stroke="#17becf"/><circle r="1" cx="239" cy="465.8181818181818" fill="#FFFFFF" stroke="#17becf"/><circle r="1" cx="239" cy="430.1818181818182" fill="#FFFFFF" stroke="#17becf"/><circle r="1" cx="239" fill="#FFFFFF" stroke="#17becf"/><circle r="1" cx="239" cy="285.09090909090907" fill="#FFFFFF" stroke="#17becf"/><circle r="1" cx="239" cy="460.72727272727275" fill="#FFFFFF" stroke="#17becf"/><circle r="1" cx="239" fill="#FFFFFF" stroke="#17becf"/></g><g><line x1="306" x2="306" y1="560" y2="444.1818181818182" stroke="#d62728" stroke-dasharray="4"/><line x1="296" x2="316" y1="560" y2="560" stroke="#d62728"/><line x1="296" x2="316" y1="444.1818181818182" y2="444.1818181818182" stroke="#d62728"/><rect x="296" y="272.3636363636364" width="20" height="68.72727272727275" fill="#d62728"/><line x1="296" y1="313.09090909090907" x2="316" y2="313.09090909090907" stroke="#FFFFFF"/><circle r="1" cx="306" cy="229.09090909090907" fill="#FFFFFF" stroke="#d62728"/><circle r="1" cx="306" cy="155.27272727272725" fill="#FFFFFF" stroke="#d62728"/><circle r="1" cx="306" cy="381.81818181818187" fill="#FFFFFF" stroke="#d62728"/><circle r="1" cx="306" cy="320.72727272727275" fill="#FFFFFF" stroke="#d62728"/><circle r="1" cx="306" cy="325.8181818181818" fill="#FFFFFF" stroke="#d62728"/><circle r="1" cx="306" cy="274.90909090909093" fill="#FFFFFF" stroke="#d62728"/><circle r="1" cx="306" cy="356.3636363636364" fill="#FFFFFF" stroke="#d62728"/><circle r="1" cx="306" cy="341.0909090909091" fill="#FFFFFF" stroke="#d62728"/><circle r="1" cx="306" cy="371.6363636363636" fill="#FFFFFF" stroke="#d62728"/><circle r="1" cx="306" cy="272.3636363636364" fill="#FFFFFF" stroke="#d62728"/><circle r="1" cx="306" cy="330.9090909090909" fill="#FFFFFF" stroke="#d62728"/><circle r="1" cx="306" cy="287.6363636363636" fill="#FFFFFF" stroke="#d62728"/><circle r="1" cx="306" cy="282.5454545454545" fill="#FFFFFF" stroke="#d62728"/><circle r="1" cx="306" cy="180.72727272727275" fill="#FFFFFF" stroke="#d62728"/><circle r="1" cx="306" cy="203.63636363636365" fill="#FFFFFF" stroke="#d62728"/><circle r="1" cx="306" cy="356.3636363636364" fill="#FFFFFF" stroke="#d62728"/><circle r="1" cx="306" cy="313.09090909090907" fill="#FFFFFF" stroke="#d62728"/><circle r="1" cx="306" cy="320.72727272727275" fill="#FFFFFF" stroke="#d62728"/><circle r="1" cx="306" fill="#FFFFFF" stroke="#d62728"/><circle r="1" cx="306" cy="328.3636363636364" fill="#FFFFFF" stroke="#d62728"/><circle r="1" cx="306" cy="272.3636363636364" fill="#FFFFFF" stroke="#d62728"/><circle r="1" cx="306" cy="280" fill="#FFFFFF" stroke="#d62728"/><circle r="1" cx="306" cy="229.09090909090907" fill="#FFFFFF" stroke="#d62728"/><circle r="1" cx="306" cy="458.18181818181813" fill="#FFFFFF" stroke="#d62728"/><circle r="1" cx="306" cy="392" fill="#FFFFFF" stroke="#d62728"/><circle r="1" cx="306" cy="315.6363636363637" fill="#FFFFFF" stroke="#d62728"/><circle r="1" cx="306" cy="287.6363636363636" fill="#FFFFFF" stroke="#d62728"/><circle r="1" cx="306" cy="244.36363636363637" fill="#FFFFFF" stroke="#d62728"/><circle r="1" cx="306" cy="305.45454545454544" fill="#FFFFFF" stroke="#d62728"/><circle r="1" cx="306" cy="440.3636363636364" fill="#FFFFFF" stroke="#d62728"/><circle r="1" cx="306" cy="338.5454545454545" fill="#FFFFFF" stroke="#d62728"/><circle r="1" cx="306" cy="366.54545454545456" fill="#FFFFFF" stroke="#d62728"/><circle r="1" cx="306" cy="244.36363636363637" fill="#FFFFFF" stroke="#d62728"/><circle r="1" cx="306" cy="206.1818181818182" fill="#FFFFFF" stroke="#d62728"/></g><g><line x1="373" x2="373" y1="560" y2="414.90909090909093" stroke="#cccccc" stroke-dasharray="4"/><line x1="363" x2="383" y1="560" y2="560" stroke="#cccccc"/><line x1="363" x2="383" y1="414.90909090909093" y2="414.90909090909093" stroke="#cccccc"/><rect x="363" y="306.7272727272728" width="20" height="54.72727272727269" fill="#cccccc"/><line x1="363" y1="330.9090909090909" x2="383" y2="330.9090909090909" stroke="#FFFFFF"/><circle r="1" cx="373" cy="308" fill="#FFFFFF" stroke="#cccccc"/><circle r="1" cx="373" cy="356.3636363636364" fill="#FFFFFF" stroke="#cccccc"/><circle r="1" cx="373" cy="274.90909090909093" fill="#FFFFFF" stroke="#cccccc"/><circle r="1" cx="373" cy="218.90909090909088" fill="#FFFFFF" stroke="#cccccc"/><circle r="1" cx="373" cy="356.3636363636364" fill="#FFFFFF" stroke="#cccccc"/><circle r="1" cx="373" fill="#FFFFFF" stroke="#cccccc"/><circle r="1" cx="373" cy="412.3636363636364" fill="#FFFFFF" stroke="#cccccc"/><circle r="1" cx="373" cy="315.6363636363637" fill="#FFFFFF" stroke="#cccccc"/><circle r="1" cx="373" cy="341.0909090909091" fill="#FFFFFF" stroke="#cccccc"/><circle r="1" cx="373" cy="305.45454545454544" fill="#FFFFFF" stroke="#cccccc"/><circle r="1" cx="373" cy="341.0909090909091" fill="#FFFFFF" stroke="#cccccc"/><circle r="1" cx="373" cy="323.2727272727272" fill="#FFFFFF" stroke="#cccccc"/><circle r="1" cx="373" cy="280" fill="#FFFFFF" stroke="#cccccc"/><circle r="1" cx="373" cy="356.3636363636364" fill="#FFFFFF" stroke="#cccccc"/><circle r="1" cx="373" cy="386.90909090909093" fill="#FFFFFF" stroke="#cccccc"/><circle r="1" cx="373" fill="#FFFFFF" stroke="#cccccc"/><circle r="1" cx="373" cy="330.9090909090909" fill="#FFFFFF" stroke="#cccccc"/><circle r="1" cx="373" cy="313.09090909090907" fill="#FFFFFF" stroke="#cccccc"/><circle r="1" cx="373" cy="414.90909090909093" fill="#FFFFFF" stroke="#cccccc"/><circle r="1" cx="373" cy="366.54545454545456" fill="#FFFFFF" stroke="#cccccc"/><circle r="1" cx="373" cy="305.45454545454544" fill="#FFFFFF" stroke="#cccccc"/><circle r="1" cx="373" cy="330.9090909090909" fill="#FFFFFF" stroke="#cccccc"/><circle r="1" cx="373" cy="330.9090909090909" fill="#FFFFFF" stroke="#cccccc"/><circle r="1" cx="373" cy="305.45454545454544" fill="#FFFFFF" stroke="#cccccc"/><circle r="1" cx="373" cy="348.7272727272727" fill="#FFFFFF" stroke="#cccccc"/><circle r="1" cx="373" cy="280" fill="#FFFFFF" stroke="#cccccc"/><circle r="1" cx="373" cy="381.81818181818187" fill="#FFFFFF" stroke="#cccccc"/><circle r="1" cx="373" cy="381.81818181818187" fill="#FFFFFF" stroke="#cccccc"/><circle r="1" cx="373" cy="386.90909090909093" fill="#FFFFFF" stroke="#cccccc"/></g><g><line x1="440" x2="440" y1="560" y2="407.2727272727273" stroke="#8c564b" stroke-dasharray="4"/><line x1="430" x2="450" y1="560" y2="560" stroke="#8c564b"/><line x1="430" x2="450" y1="407.2727272727273" y2="407.2727272727273" stroke="#8c564b"/><rect x="430" y="280" width="20" height="82.72727272727269" fill="#8c564b"/><line x1="430" y1="311.81818181818187" x2="450" y2="311.81818181818187" stroke="#FFFFFF"/><circle r="1" cx="440" cy="381.81818181818187" fill="#FFFFFF" stroke="#8c564b"/><circle r="1" cx="440" cy="305.45454545454544" fill="#FFFFFF" stroke="#8c564b"/><circle r="1" cx="440" cy="254.54545454545456" fill="#FFFFFF" stroke="#8c564b"/><circle r="1" cx="440" cy="287.6363636363636" fill="#FFFFFF" stroke="#8c564b"/><circle r="1" cx="440" cy="356.3636363636364" fill="#FFFFFF" stroke="#8c564b"/><circle r="1" cx="440" cy="376.72727272727275" fill="#FFFFFF" stroke="#8c564b"/><circle r="1" cx="440" fill="#FFFFFF" stroke="#8c564b"/><circle r="1" cx="440" cy="346.1818181818182" fill="#FFFFFF" stroke="#8c564b"/><circle r="1" cx="440" cy="193.45454545454547" fill="#FFFFFF" stroke="#8c564b"/><circle r="1" cx="440" cy="305.45454545454544" fill="#FFFFFF" stroke="#8c564b"/><circle r="1" cx="440" cy="325.8181818181818" fill="#FFFFFF" stroke="#8c564b"/><circle r="1" cx="440" cy="315.6363636363637" fill="#FFFFFF" stroke="#8c564b"/><circle r="1" cx="440" cy="290.1818181818182" fill="#FFFFFF" stroke="#8c564b"/><circle r="1" cx="440" cy="226.54545454545453" fill="#FFFFFF" stroke="#8c564b"/><circle r="1" cx="440" cy="264.72727272727275" fill="#FFFFFF" stroke="#8c564b"/><circle r="1" cx="440" cy="366.54545454545456" fill="#FFFFFF" stroke="#8c564b"/><circle r="1" cx="440" cy="302.909090909091" fill="#FFFFFF" stroke="#8c564b"/><circle r="1" cx="440" cy="280" fill="#FFFFFF" stroke="#8c564b"/><circle r="1" cx="440" cy="280" fill="#FFFFFF" stroke="#8c564b"/><circle r="1" cx="440" cy="402.18181818181824" fill="#FFFFFF" stroke="#8c564b"/><circle r="1" cx="440" cy="229.09090909090907" fill="#FFFFFF" stroke="#8c564b"/><circle r="1" cx="440" cy="254.54545454545456" fill="#FFFFFF" stroke="#8c564b"/><circle r="1" cx="440" cy="282.5454545454545" fill="#FFFFFF" stroke="#8c564b"/><circle r="1" cx="440" cy="338.5454545454545" fill="#FFFFFF" stroke="#8c564b"/><circle r="1" cx="440" cy="356.3636363636364" fill="#FFFFFF" stroke="#8c564b"/><circle r="1" cx="440" cy="236.72727272727272" fill="#FFFFFF" stroke="#8c564b"/><circle r="1" cx="440" cy="285.09090909090907" fill="#FFFFFF" stroke="#8c564b"/><circle r="1" cx="440" cy="407.2727272727273" fill="#FFFFFF" stroke="#8c564b"/><circle r="1" cx="440" cy="356.3636363636364" fill="#FFFFFF" stroke="#8c564b"/><circle r="1" cx="440" cy="305.45454545454544" fill="#FFFFFF" stroke="#8c564b"/><circle r="1" cx="440" cy="147.63636363636365" fill="#FFFFFF" stroke="#8c564b"/><circle r="1" cx="440" cy="280" fill="#FFFFFF" stroke="#8c564b"/><circle r="1" cx="440" cy="450.54545454545456" fill="#FFFFFF" stroke="#8c564b"/><circle r="1" cx="440" cy="407.2727272727273" fill="#FFFFFF" stroke="#8c564b"/><circle r="1" cx="440" cy="353.8181818181818" fill="#FFFFFF" stroke="#8c564b"/><circle r="1" cx="440" cy="427.6363636363636" fill="#FFFFFF" stroke="#8c564b"/><circle r="1" cx="440" cy="437.8181818181818" fill="#FFFFFF" stroke="#8c564b"/><circle r="1" cx="440" fill="#FFFFFF" stroke="#8c564b"/><circle r="1" cx="440" cy="358.9090909090909" fill="#FFFFFF" stroke="#8c564b"/><circle r="1" cx="440" cy="259.6363636363636" fill="#FFFFFF" stroke="#8c564b"/><circle r="1" cx="440" cy="381.81818181818187" fill="#FFFFFF" stroke="#8c564b"/><circle r="1" cx="440" cy="229.09090909090907" fill="#FFFFFF" stroke="#8c564b"/><circle r="1" cx="440" cy="442.9090909090909" fill="#FFFFFF" stroke="#8c564b"/><circle r="1" cx="440" cy="259.6363636363636" fill="#FFFFFF" stroke="#8c564b"/><circle r="1" cx="440" cy="389.45454545454544" fill="#FFFFFF" stroke="#8c564b"/><circle r="1" cx="440" cy="346.1818181818182" fill="#FFFFFF" stroke="#8c564b"/><circle r="1" cx="440" cy="259.6363636363636" fill="#FFFFFF" stroke="#8c564b"/><circle r="1" cx="440" cy="392" fill="#FFFFFF" stroke="#8c564b"/><circle r="1" cx="440" cy="308" fill="#FFFFFF" stroke="#8c564b"/><circle r="1" cx="440" cy="381.81818181818187" fill="#FFFFFF" stroke="#8c564b"/><circle r="1" cx="440" cy="295.2727272727273" fill="#FFFFFF" stroke="#8c564b"/><circle r="1" cx="440" cy="302.909090909091" fill="#FFFFFF" stroke="#8c564b"/><circle r="1" cx="440" cy="402.18181818181824" fill="#FFFFFF" stroke="#8c564b"/><circle r="1" cx="440" cy="280" fill="#FFFFFF" stroke="#8c564b"/><circle r="1" cx="440" cy="308" fill="#FFFFFF" stroke="#8c564b"/><circle r="1" cx="440" fill="#FFFFFF" stroke="#8c564b"/><circle r="1" cx="440" cy="330.9090909090909" fill="#FFFFFF" stroke="#8c564b"/><circle r="1" cx="440" cy="320.72727272727275" fill="#FFFFFF" stroke="#8c564b"/><circle r="1" cx="440" cy="155.27272727272725" fill="#FFFFFF" stroke="#8c564b"/><circle r="1" cx="440" cy="361.4545454545455" fill="#FFFFFF" stroke="#8c564b"/><circle r="1" cx="440" cy="167.99999999999997" fill="#FFFFFF" stroke="#8c564b"/><circle r="1" cx="440" cy="358.9090909090909" fill="#FFFFFF" stroke="#8c564b"/><circle r="1" cx="440" cy="338.5454545454545" fill="#FFFFFF" stroke="#8c564b"/><circle r="1" cx="440" fill="#FFFFFF" stroke="#8c564b"/></g><g><line x1="507" x2="507" y1="229.09090909090907" y2="526.9090909090909" stroke="#1f77b4" stroke-dasharray="4"/><line x1="497" x2="517" y1="229.09090909090907" y2="229.09090909090907" stroke="#1f77b4"/><line x1="497" x2="517" y1="526.9090909090909" y2="526.9090909090909" stroke="#1f77b4"/><rect x="497" y="336" width="20" height="94.18181818181819" fill="#1f77b4"/><line x1="497" y1="363.99999999999994" x2="517" y2="363.99999999999994" stroke="#FFFFFF"/><circle r="1" cx="507" fill="#FFFFFF" stroke="#1f77b4"/><circle r="1" cx="507" fill="#FFFFFF" stroke="#1f77b4"/><circle r="1" cx="507" fill="#FFFFFF" stroke="#1f77b4"/></g><g><line x1="574" x2="574" y1="560" y2="516.7272727272727" stroke="#bcbd22" stroke-dasharray="4"/><line x1="564" x2="584" y1="560" y2="560" stroke="#bcbd22"/><line x1="564" x2="584" y1="516.7272727272727" y2="516.7272727272727" stroke="#bcbd22"/><rect x="564" y="458.18181818181813" width="20" height="26.090909090909122" fill="#bcbd22"/><line x1="564" y1="477.2727272727273" x2="584" y2="477.2727272727273" stroke="#FFFFFF"/><circle r="1" cx="574" cy="468.3636363636364" fill="#FFFFFF" stroke="#bcbd22"/><circle r="1" cx="574" cy="465.8181818181818" fill="#FFFFFF" stroke="#bcbd22"/><circle r="1" cx="574" cy="483.6363636363636" fill="#FFFFFF" stroke="#bcbd22"/><circle r="1" cx="574" cy="432.7272727272727" fill="#FFFFFF" stroke="#bcbd22"/><circle r="1" cx="574" cy="509.09090909090907" fill="#FFFFFF" stroke="#bcbd22"/><circle r="1" cx="574" cy="486.1818181818182" fill="#FFFFFF" stroke="#bcbd22"/><circle r="1" cx="574" cy="455.6363636363637" fill="#FFFFFF" stroke="#bcbd22"/><circle r="1" cx="574" cy="488.72727272727275" fill="#FFFFFF" stroke="#bcbd22"/><circle r="1" cx="574" cy="470.90909090909093" fill="#FFFFFF" stroke="#bcbd22"/><circle r="1" cx="574" cy="483.6363636363636" fill="#FFFFFF" stroke="#bcbd22"/><circle r="1" cx="574" cy="491.27272727272725" fill="#FFFFFF" stroke="#bcbd22"/><circle r="1" cx="574" cy="458.18181818181813" fill="#FFFFFF" stroke="#bcbd22"/><circle r="1" cx="574" cy="458.18181818181813" fill="#FFFFFF" stroke="#bcbd22"/><circle r="1" cx="574" cy="407.2727272727273" fill="#FFFFFF" stroke="#bcbd22"/><circle r="1" cx="574" cy="465.8181818181818" fill="#FFFFFF" stroke="#bcbd22"/><circle r="1" cx="574" cy="486.1818181818182" fill="#FFFFFF" stroke="#bcbd22"/><circle r="1" cx="574" cy="465.8181818181818" fill="#FFFFFF" stroke="#bcbd22"/><circle r="1" cx="574" cy="425.09090909090907" fill="#FFFFFF" stroke="#bcbd22"/><circle r="1" cx="574" cy="509.09090909090907" fill="#FFFFFF" stroke="#bcbd22"/><circle r="1" cx="574" cy="516.7272727272727" fill="#FFFFFF" stroke="#bcbd22"/><circle r="1" cx="574" cy="483.6363636363636" fill="#FFFFFF" stroke="#bcbd22"/><circle r="1" cx="574" cy="483.6363636363636" fill="#FFFFFF" stroke="#bcbd22"/><circle r="1" cx="574" cy="483.6363636363636" fill="#FFFFFF" stroke="#bcbd22"/><circle r="1" cx="574" cy="458.18181818181813" fill="#FFFFFF" stroke="#bcbd22"/><circle r="1" cx="574" cy="458.18181818181813" fill="#FFFFFF" stroke="#bcbd22"/><circle r="1" cx="574" fill="#FFFFFF" stroke="#bcbd22"/><circle r="1" cx="574" cy="450.54545454545456" fill="#FFFFFF" stroke="#bcbd22"/><circle r="1" cx="574" cy="483.6363636363636" fill="#FFFFFF" stroke="#bcbd22"/><circle r="1" cx="574" cy="483.6363636363636" fill="#FFFFFF" stroke="#bcbd22"/></g><g><line x1="641" x2="641" y1="302.909090909091" y2="333.45454545454544" stroke="#9467bd" stroke-dasharray="4"/><line x1="631" x2="651" y1="302.909090909091" y2="302.909090909091" stroke="#9467bd"/><line x1="631" x2="651" y1="333.45454545454544" y2="333.45454545454544" stroke="#9467bd"/><rect x="631" y="307.3636363636364" width="20" height="61.72727272727275" fill="#9467bd"/><line x1="631" y1="337.2727272727273" x2="651" y2="337.2727272727273" stroke="#FFFFFF"/><circle r="1" cx="641" fill="#FFFFFF" stroke="#9467bd"/><circle r="1" cx="641" cy="226.54545454545453" fill="#FFFFFF" stroke="#9467bd"/><circle r="1" cx="641" cy="338.5454545454545" fill="#FFFFFF" stroke="#9467bd"/><circle r="1" cx="641" cy="353.8181818181818" fill="#FFFFFF" stroke="#9467bd"/><circle r="1" cx="641" cy="353.8181818181818" fill="#FFFFFF" stroke="#9467bd"/><circle r="1" cx="641" fill="#FFFFFF" stroke="#9467bd"/><circle r="1" cx="641" cy="341.0909090909091" fill="#FFFFFF" stroke="#9467bd"/><circle r="1" cx="641" cy="381.81818181818187" fill="#FFFFFF" stroke="#9467bd"/><circle r="1" cx="641" cy="374.1818181818182" fill="#FFFFFF" stroke="#9467bd"/><circle r="1" cx="641" cy="381.81818181818187" fill="#FFFFFF" stroke="#9467bd"/><circle r="1" cx="641" cy="280" fill="#FFFFFF" stroke="#9467bd"/><circle r="1" cx="641" cy="254.54545454545456" fill="#FFFFFF" stroke="#9467bd"/><circle r="1" cx="641" cy="381.81818181818187" fill="#FFFFFF" stroke="#9467bd"/><circle r="1" cx="641" cy="336" fill="#FFFFFF" stroke="#9467bd"/><circle r="1" cx="641" cy="376.72727272727275" fill="#FFFFFF" stroke="#9467bd"/></g><g><line x1="708" x2="708" y1="560" y2="432.7272727272727" stroke="#ff7f0e" stroke-dasharray="4"/><line x1="698" x2="718" y1="560" y2="560" stroke="#ff7f0e"/><line x1="698" x2="718" y1="432.7272727272727" y2="432.7272727272727" stroke="#ff7f0e"/><rect x="698" y="232.27272727272728" width="20" height="147.63636363636365" fill="#ff7f0e"/><line x1="698" y1="300.3636363636364" x2="718" y2="300.3636363636364" stroke="#FFFFFF"/><circle r="1" cx="708" cy="241.81818181818178" fill="#FFFFFF" stroke="#ff7f0e"/><circle r="1" cx="708" cy="229.09090909090907" fill="#FFFFFF" stroke="#ff7f0e"/><circle r="1" cx="708" cy="252.00000000000003" fill="#FFFFFF" stroke="#ff7f0e"/><circle r="1" cx="708" cy="358.9090909090909" fill="#FFFFFF" stroke="#ff7f0e"/><circle r="1" cx="708" cy="420" fill="#FFFFFF" stroke="#ff7f0e"/><circle r="1" cx="708" fill="#FFFFFF" stroke="#ff7f0e"/><circle r="1" cx="708" fill="#FFFFFF" stroke="#ff7f0e"/><circle r="1" cx="708" fill="#FFFFFF" stroke="#ff7f0e"/><circle r="1" cx="708" cy="277.4545454545455" fill="#FFFFFF" stroke="#ff7f0e"/><circle r="1" cx="708" cy="430.1818181818182" fill="#FFFFFF" stroke="#ff7f0e"/><circle r="1" cx="708" fill="#FFFFFF" stroke="#ff7f0e"/><circle r="1" cx="708" cy="25.454545454545432" fill="#FFFFFF" stroke="#ff7f0e"/><circle r="1" cx="708" fill="#FFFFFF" stroke="#ff7f0e"/><circle r="1" cx="708" cy="386.90909090909093" fill="#FFFFFF" stroke="#ff7f0e"/><circle r="1" cx="708" fill="#FFFFFF" stroke="#ff7f0e"/><circle r="1" cx="708" cy="432.7272727272727" fill="#FFFFFF" stroke="#ff7f0e"/><circle r="1" cx="708" cy="323.2727272727272" fill="#FFFFFF" stroke="#ff7f0e"/><circle r="1" cx="708" fill="#FFFFFF" stroke="#ff7f0e"/><circle r="1" cx="708" cy="226.54545454545453" fill="#FFFFFF" stroke="#ff7f0e"/><circle r="1" cx="708" cy="218.90909090909088" fill="#FFFFFF" stroke="#ff7f0e"/><circle r="1" cx="708" fill="#FFFFFF" stroke="#ff7f0e"/><circle r="1" cx="708" cy="333.45454545454544" fill="#FFFFFF" stroke="#ff7f0e"/><circle r="1" cx="708" fill="#FFFFFF" stroke="#ff7f0e"/></g></g><g id="boxplots"><g><text x="52" y="560" dominant-baseline="middle" style="font-family: Arial, sans-serif; font-size: 10px; fill: black; font-weight: normal;">0</text><text x="52" y="458.18181818181813" dominant-baseline="middle" style="font-family: Arial, sans-serif; font-size: 10px; fill: black; font-weight: normal;">4</text><text x="52" y="246.9090909090909" dominant-baseline="middle" style="font-family: Arial, sans-serif; font-size: 10px; fill: black; font-weight: normal;">12.3</text><text x="24" y="344.27272727272725" dominant-baseline="middle" text-anchor="end" style="font-family: Arial, sans-serif; font-size: 10px; fill: black; font-weight: normal;">8.475</text><text x="34" y="197.9090909090909" dominant-baseline="middle" text-anchor="end" style="font-family: Arial, sans-serif; font-size: 10px; fill: black; font-weight: normal;">14.225</text></g><g><text x="119" y="101.81818181818178" dominant-baseline="middle" style="font-family: Arial, sans-serif; font-size: 10px; fill: black; font-weight: normal;">18</text><text x="119" y="432.7272727272727" dominant-baseline="middle" style="font-family: Arial, sans-serif; font-size: 10px; fill: black; font-weight: normal;">5</text><text x="119" y="280" dominant-baseline="middle" style="font-family: Arial, sans-serif; font-size: 10px; fill: black; font-weight: normal;">11</text><text x="91" y="378" dominant-baseline="middle" text-anchor="end" style="font-family: Arial, sans-serif; font-size: 10px; fill: black; font-weight: normal;">7.15</text><text x="101" y="222.72727272727272" dominant-baseline="middle" text-anchor="end" style="font-family: Arial, sans-serif; font-size: 10px; fill: black; font-weight: normal;">13.25</text></g><g><text x="186" y="560" dominant-baseline="middle" style="font-family: Arial, sans-serif; font-size: 10px; fill: black; font-weight: normal;">0</text><text x="186" y="356.3636363636364" dominant-baseline="middle" style="font-family: Arial, sans-serif; font-size: 10px; fill: black; font-weight: normal;">8</text><text x="186" y="361.4545454545455" dominant-baseline="middle" style="font-family: Arial, sans-serif; font-size: 10px; fill: black; font-weight: normal;">7.8</text><text x="158" y="387.5454545454545" dominant-baseline="middle" text-anchor="end" style="font-family: Arial, sans-serif; font-size: 10px; fill: black; font-weight: normal;">6.775</text><text x="168" y="274.27272727272725" dominant-baseline="middle" text-anchor="end" style="font-family: Arial, sans-serif; font-size: 10px; fill: black; font-weight: normal;">11.225000000000001</text></g><g><text x="253" y="560" dominant-baseline="middle" style="font-family: Arial, sans-serif; font-size: 10px; fill: black; font-weight: normal;">0</text><text x="253" y="493.8181818181818" dominant-baseline="middle" style="font-family: Arial, sans-serif; font-size: 10px; fill: black; font-weight: normal;">2.6</text><text x="253" y="384.3636363636363" dominant-baseline="middle" style="font-family: Arial, sans-serif; font-size: 10px; fill: black; font-weight: normal;">6.9</text><text x="225" y="432.7272727272727" dominant-baseline="middle" text-anchor="end" style="font-family: Arial, sans-serif; font-size: 10px; fill: black; font-weight: normal;">5</text><text x="235" y="332.18181818181824" dominant-baseline="middle" text-anchor="end" style="font-family: Arial, sans-serif; font-size: 10px; fill: black; font-weight: normal;">8.95</text></g><g><text x="320" y="560" dominant-baseline="middle" style="font-family: Arial, sans-serif; font-size: 10px; fill: black; font-weight: normal;">0</text><text x="320" y="444.1818181818182" dominant-baseline="middle" style="font-family: Arial, sans-serif; font-size: 10px; fill: black; font-weight: normal;">4.549999999999998</text><text x="320" y="313.09090909090907" dominant-baseline="middle" style="font-family: Arial, sans-serif; font-size: 10px; fill: black; font-weight: normal;">9.7</text><text x="292" y="341.0909090909091" dominant-baseline="middle" text-anchor="end" style="font-family: Arial, sans-serif; font-size: 10px; fill: black; font-weight: normal;">8.6</text><text x="302" y="272.3636363636364" dominant-baseline="middle" text-anchor="end" style="font-family: Arial, sans-serif; font-size: 10px; fill: black; font-weight: normal;">11.3</text></g><g><text x="387" y="560" dominant-baseline="middle" style="font-family: Arial, sans-serif; font-size: 10px; fill: black; font-weight: normal;">0</text><text x="387" y="414.90909090909093" dominant-baseline="middle" style="font-family: Arial, sans-serif; font-size: 10px; fill: black; font-weight: normal;">5.7</text><text x="387" y="330.9090909090909" dominant-baseline="middle" style="font-family: Arial, sans-serif; font-size: 10px; fill: black; font-weight: normal;">9</text><text x="359" y="361.4545454545455" dominant-baseline="middle" text-anchor="end" style="font-family: Arial, sans-serif; font-size: 10px; fill: black; font-weight: normal;">7.8</text><text x="369" y="306.7272727272728" dominant-baseline="middle" text-anchor="end" style="font-family: Arial, sans-serif; font-size: 10px; fill: black; font-weight: normal;">9.95</text></g><g><text x="454" y="560" dominant-baseline="middle" style="font-family: Arial, sans-serif; font-size: 10px; fill: black; font-weight: normal;">0</text><text x="454" y="407.2727272727273" dominant-baseline="middle" style="font-family: Arial, sans-serif; font-size: 10px; fill: black; font-weight: normal;">6</text><text x="454" y="311.81818181818187" dominant-baseline="middle" style="font-family: Arial, sans-serif; font-size: 10px; fill: black; font-weight: normal;">9.75</text><text x="426" y="362.7272727272727" dominant-baseline="middle" text-anchor="end" style="font-family: Arial, sans-serif; font-size: 10px; fill: black; font-weight: normal;">7.75</text><text x="436" y="280" dominant-baseline="middle" text-anchor="end" style="font-family: Arial, sans-serif; font-size: 10px; fill: black; font-weight: normal;">11</text></g><g><text x="521" y="229.09090909090907" dominant-baseline="middle" style="font-family: Arial, sans-serif; font-size: 10px; fill: black; font-weight: normal;">13</text><text x="521" y="526.9090909090909" dominant-baseline="middle" style="font-family: Arial, sans-serif; font-size: 10px; fill: black; font-weight: normal;">1.3</text><text x="521" y="363.99999999999994" dominant-baseline="middle" style="font-family: Arial, sans-serif; font-size: 10px; fill: black; font-weight: normal;">7.7</text><text x="493" y="430.1818181818182" dominant-baseline="middle" text-anchor="end" style="font-family: Arial, sans-serif; font-size: 10px; fill: black; font-weight: normal;">5.1</text><text x="503" y="336" dominant-baseline="middle" text-anchor="end" style="font-family: Arial, sans-serif; font-size: 10px; fill: black; font-weight: normal;">8.8</text></g><g><text x="588" y="560" dominant-baseline="middle" style="font-family: Arial, sans-serif; font-size: 10px; fill: black; font-weight: normal;">0</text><text x="588" y="516.7272727272727" dominant-baseline="middle" style="font-family: Arial, sans-serif; font-size: 10px; fill: black; font-weight: normal;">1.7</text><text x="588" y="477.2727272727273" dominant-baseline="middle" style="font-family: Arial, sans-serif; font-size: 10px; fill: black; font-weight: normal;">3.25</text><text x="560" y="484.27272727272725" dominant-baseline="middle" text-anchor="end" style="font-family: Arial, sans-serif; font-size: 10px; fill: black; font-weight: normal;">2.975</text><text x="570" y="458.18181818181813" dominant-baseline="middle" text-anchor="end" style="font-family: Arial, sans-serif; font-size: 10px; fill: black; font-weight: normal;">4</text></g><g><text x="655" y="302.909090909091" dominant-baseline="middle" style="font-family: Arial, sans-serif; font-size: 10px; fill: black; font-weight: normal;">10.1</text><text x="655" y="333.45454545454544" dominant-baseline="middle" style="font-family: Arial, sans-serif; font-size: 10px; fill: black; font-weight: normal;">8.9</text><text x="655" y="337.2727272727273" dominant-baseline="middle" style="font-family: Arial, sans-serif; font-size: 10px; fill: black; font-weight: normal;">8.75</text><text x="627" y="369.0909090909091" dominant-baseline="middle" text-anchor="end" style="font-family: Arial, sans-serif; font-size: 10px; fill: black; font-weight: normal;">7.5</text><text x="637" y="307.3636363636364" dominant-baseline="middle" text-anchor="end" style="font-family: Arial, sans-serif; font-size: 10px; fill: black; font-weight: normal;">9.925</text></g><g><text x="722" y="560" dominant-baseline="middle" style="font-family: Arial, sans-serif; font-size: 10px; fill: black; font-weight: normal;">0</text><text x="722" y="432.7272727272727" dominant-baseline="middle" style="font-family: Arial, sans-serif; font-size: 10px; fill: black; font-weight: normal;">5</text><text x="722" y="300.3636363636364" dominant-baseline="middle" style="font-family: Arial, sans-serif; font-size: 10px; fill: black; font-weight: normal;">10.2</text><text x="694" y="379.90909090909093" dominant-baseline="middle" text-anchor="end" style="font-family: Arial, sans-serif; font-size: 10px; fill: black; font-weight: normal;">7.075</text><text x="704" y="232.27272727272728" dominant-baseline="middle" text-anchor="end" style="font-family: Arial, sans-serif; font-size: 10px; fill: black; font-weight: normal;">12.875</text></g></g></g></svg>